<svg width="281" height="280" viewBox="0 0 281 280" fill="none" xmlns="http://www.w3.org/2000/svg">
<path d="M60.0317 151.869C83.7432 189.846 145.58 193.369 173.238 158.324L226.748 90.5319C256.164 53.2615 224.353 2.10683 171.34 1.4431L74.7401 0.232749C24.8014 -0.396361 -6.827 44.8209 16.9358 82.8706L60.0317 151.869Z" fill="white"/>
<path d="M54.5828 41.3452C46.6807 39.5622 38.752 43.4302 33.1874 51.7848L7.94118 89.69C0.755177 100.48 -1.24409 116.827 2.88761 131.02L39.3443 256.263C44.2793 273.216 56.6015 282.645 68.5399 278.599L156.184 248.895C166.623 245.358 174.291 232.302 175.294 216.351L179.25 153.515C179.764 145.346 178.474 137.097 175.574 130.024L154.166 77.8059C150.175 68.0699 143.503 61.4377 135.987 59.7399L54.5828 41.3452Z" fill="white"/>
<g style="mix-blend-mode:multiply">
<path d="M60.0317 151.869C83.7432 189.846 145.58 193.369 173.238 158.324L226.748 90.5319C256.164 53.2615 224.353 2.10683 171.34 1.4431L74.7401 0.232749C24.8014 -0.396361 -6.827 44.8209 16.9358 82.8706L60.0317 151.869Z" fill="#FAE041"/>
</g>
<g style="mix-blend-mode:multiply">
<path d="M54.5828 41.3452C46.6807 39.5622 38.752 43.4302 33.1874 51.7848L7.94118 89.69C0.755177 100.48 -1.24409 116.827 2.88761 131.02L39.3443 256.263C44.2793 273.216 56.6015 282.645 68.5399 278.599L156.184 248.895C166.623 245.358 174.291 232.302 175.294 216.351L179.25 153.515C179.764 145.346 178.474 137.097 175.574 130.024L154.166 77.8059C150.175 68.0699 143.503 61.4377 135.987 59.7399L54.5828 41.3452Z" fill="#20BEFF"/>
</g>
</svg>
