<svg fill="none" height="100" viewBox="0 0 100 100" width="100" xmlns="http://www.w3.org/2000/svg"><path d="m73 16.5c5.7916 4.2573 2.0855 9.9591 3 13 1.0406 3.4606 6.286 5.8366 8 10.5 1.8821 5.1207-.5 8 0 10 .5001 2 5.3619 3.1263 7 6 1.6226 2.8466 1.6562 6.6841.5944 8.5-1.3187 2.2553 1.4877 2.214 1.9056 6 .1893 1.7146.8959 4.2042-1.9056 7.7521-1.2975 1.6433-3.5949 3.2479-7.5944 3.2479-6.3293-1.2171-6.2043-1.1863-12 0-4.9432 1.0118-26.4425 5.9016-39.5 7.5-3.0784.3768-5.6876 0-7.5 0-3.5 1-4.5 4.5-9.0011 5.5-6.24432.2851-8.4989-5-7.99789-8 .48042-2.8767 1.99899-4.5 3.73019-8 .7172-1.4498-.5508-5.4739 0-7.6917.6922-2.7868 2.9459-4.131 2.7688-4.8083-1.0704-4.0933-1.8174-6.7403-1.5-9 .7673-5.4624 5.0933-5.709 4.5-8-1.3929-5.379-2.5-10.5-1.5011-13.7705 1.4325-4.6902 4.9418-6.8024 8.5011-9.7295 1.5444-1.2701 1.4689-10.7135 7.3496-14.5979 5.1504-3.4021 7.7733-1.04246 11.5832 0 2.0257-.4144 3.5045-2.72744 6.4012-4.25735 6.8993-2.57458 12.7108 3.13679 15.5458 6.99415 2.7878 1.8986 5.3015 1.1567 7.6202 2.8611z" fill="#fff"/><path d="m66.7336 18.6611c-12.361-12.77019-36.6377-8.97854-44.4447 6.9395l-15.10404 30.7933c-8.3031 16.9291 8.29744 34.1414 28.91364 29.9756l37.5667-7.5906c19.421-3.9227 27.9198-24.1227 15.5328-36.9171z" fill="#fae041"/><path d="m66.7336 18.6611c-12.361-12.77019-36.6377-8.97854-44.4447 6.9395l-15.10404 30.7933c-8.3031 16.9291 8.29744 34.1414 28.91364 29.9756l37.5667-7.5906c19.421-3.9227 27.9198-24.1227 15.5328-36.9171z" fill="#fae041"/><path clip-rule="evenodd" d="m61.307 72.7758c-1.0995-2.5335-1.5297-5.0671-1.4819-7.6962-.3148-.1049-.5272.046-.7308.1908-.0747.0531-.1483.1053-.2253.1438-3.0593 1.6731-6.3577 1.9599-9.656 1.5775-1.0936-.1287-2.1222-.5603-3.1441-.9891-.4969-.2085-.9923-.4163-1.4927-.5884-.1116-.0318-.2125-.085-.3134-.1381-.2018-.1062-.4037-.2124-.6905-.1487.1434 3.2506-.4302 6.4533-1.3863 9.6083.47-.0196.9159-.0873 1.3541-.1539.6317-.0959 1.2474-.1894 1.8965-.1329.5258.0478 1.0039.0956 1.3863.3824.5736.3824.478.717-.1434 1.0516-.9561.5259-2.0077.6693-3.0594.8127-4.828.8604-9.3692 2.4379-13.6714 4.7324-3.5852 1.9599-6.5012 4.6846-8.9391 7.9352-.3346.478-.717.9082-1.0994 1.2906-.3346.3346-.7171.6693-1.0995 1.0039-2.7725 2.3423-5.7363 1.3385-7.6961-.8605-1.0995-1.2428-2.00774-2.6291-1.67313-4.4456.28682-1.5296.86043-2.9159 1.91213-4.111.2868-.3107.5616-.6333.8365-.956s.5497-.6453.8365-.9561c.4303-.478.5737-1.0038.5259-1.673-.0359-.6812-.1524-1.3624-.2689-2.0436-.0389-.2271-.0777-.4541-.1135-.6812-.3347-1.9121-.0957-3.7286 1.195-5.2582.478-.5737.9083-1.1473 1.3385-1.7209.956-1.2429 1.2428-2.5813.6214-4.0632-.0605-.1412-.1125-.2825-.1632-.4201-.0694-.1884-.1364-.3702-.2192-.5359-1.0517-2.1512-1.0517-4.4457-.7649-6.7402.1913-1.434 1.0039-2.5335 2.0077-3.4895 1.3863-1.3385 2.1033-2.9638 2.1511-4.8759 0-.8126-.1912-1.5775-.3824-2.3423-.239-.8604-.478-1.6731-.8126-2.5335-1.0995-3.0594-.7648-6.0231.717-8.8434.9083-1.7209 1.9121-3.394 3.4418-4.6847.3346-.2868.717-.5258 1.1472-.7648.9083-.478 1.8165-1.0039 2.5814-1.7209 1.5774-1.3863 2.2467-3.2027 2.4379-5.2582.0216-.2087.0421-.4184.0626-.6288.1161-1.187.234-2.393.5588-3.53.5736-2.1033 1.6253-3.872 3.2028-5.3061 1.2906-1.1472 2.9159-1.6253 4.589-1.8165 1.6253-.1912 3.2027.0478 4.589.9561 1.6731 1.0516 3.2028.8604 4.6846-.4781.6215-.5736 1.3385-1.0516 2.0077-1.4818 2.8204-1.76871 5.7841-1.67311 8.7957-.71706 2.7725.86046 4.828 2.62916 6.3099 5.01926 1.0516 1.7209 2.5335 2.4379 4.3978 2.6291.1767.0221.3545.043.5331.0641l.0011.0001c.9806.1155 1.9853.2339 2.9553.5572 1.3385.4303 2.1989 1.3385 2.5336 2.7248.239.9082.3824 1.8643.239 2.8203-.239 1.8165-.3346 3.633.0956 5.4495.1912.8604.478 1.7208.956 2.4379.2256.3248.4477.653.67.9814.9555 1.4116 1.9133 2.8266 3.1542 3.99 1.0039.9083 1.8165 1.9599 2.5813 3.0594 1.0995 1.5296 1.3863 3.2027 1.2429 5.0192-.0956 1.1473-.239 2.2945-.478 3.394-.4302 1.8165.1434 3.2983 1.2906 4.6368.7967.9162 1.7594 1.6665 2.7221 2.4167.1926.15.3851.3001.5763.4514 1.7209 1.3863 2.8681 3.155 3.0593 5.4017.0956 1.2429-.1434 2.3901-.9082 3.3462-.5258.6692-.5258 1.3384-.1912 2.0555.1778.3852.3923.7521.6094 1.1233.1332.2277.2672.4569.3944.6931.1673.2869.3466.5856.5259.8844.1792.2987.3585.5975.5258.8843 1.6731 2.9638.8604 7.1704-3.0116 9.1303-.8126.4302-1.6252.8126-2.5813.8604-1.0516.0478-1.9599-.239-2.8681-.717-1.2502-.658-2.5683-1.2028-3.8764-1.7434-.5925-.2449-1.1832-.489-1.7643-.7423-2.7247-1.1951-5.6885-1.5297-8.6044-1.6253-.5736-.0191-1.1473-.0421-1.7209-.065-2.2945-.0918-4.589-.1836-6.8835-.0306l-.0808.0075c-.5071.048-1.0762.1019-1.2577-.5334-.1434-.4302.239-.7648 1.1473-1.0516.2424-.052.4786-.0977.7177-.1439.4206-.0813.85-.1644 1.3378-.2863zm-35.945-21.5107c-.1434 1.195-.4302 2.4379-.9561 3.6329l-.1434.2868c-.4302.7171-1.0038.9083-1.5297.6215-.478-.2868-.6214-.8127-.2868-1.5297.6693-1.3385 1.1951-2.7247 1.4341-4.2066.0478-.3346.1912-.717.6214-.717.4781 0 .6215.3346.7649.717.0956.3824.0956.717.0956 1.1951zm-4.0165 2.7724c.7648-1.1473 1.2429-2.438 1.3385-3.8242 0-.478 0-.9561-.239-1.4819-.0957-.239-.2869-.3346-.5259-.3346s-.4302.1434-.478.3824c-.0664.1661-.0867.3322-.1089.5143-.0098.08-.0199.163-.0345.2505-.1434 1.4819-.5736 2.8682-1.7209 3.9676-.1434.1434-.2868.2869-.3346.4781-.1434.3346-.1912.717.1434.956.2868.239.5736.1912.8604.0478.4303-.1912.8127-.5258 1.0995-.956zm25.1414-29.2555c.3824 0 .7648 0 1.1472.0478.5736.0957 1.0995.3347 1.4341.8127.239.3346.3346.717.0478 1.0516-.239.3347-.6214.4303-1.0039.239-1.0038-.5736-2.1033-.6214-3.2027-.5736h-.3346c-.2868-.0478-.6215-.1434-.6693-.5258-.0478-.3346.1912-.5736.4781-.717.6692-.2869 1.3862-.3347 2.1033-.3347zm29.3535 26.2434c-.1209-.1256-.2296-.2386-.5266-.2386-.1434 0-.2868.1912-.3824.3824-.239.5258-.3346 1.0517-.3346 1.5775-.0478 1.0995.3346 2.0555 1.0516 2.8203.3346.3825.8127.4781 1.2429.1912.4302-.2868.4302-.717.2868-1.1472-.0045-.0134-.009-.0273-.0135-.0414l-.01-.0316c-.0411-.13-.0876-.2772-.1677-.3572-.5258-.7171-.717-1.5297-.8605-2.3423-.0478-.2869-.0956-.5259-.239-.7649-.0161-.0161-.0316-.0323-.047-.0482zm-45.6538-25.2393c-.0956.6214-.2868 1.1472-.5736 1.673-.4302.7649-.9561 1.4819-1.5297 2.1033-.5736.6215-1.0994.7171-1.4819.2868-.3346-.3824-.2868-.7648.2868-1.3862.1196-.1434.251-.2749.3825-.4063.1314-.1315.2629-.2629.3824-.4064.5258-.6214 1.0038-1.3384 1.3385-2.1033.1434-.3346.2868-.6692.717-.5258.4302.0956.478.478.478.7649zm47.1816 24.7617v.1434c.0478 1.2907.4302 2.3901 1.1472 3.4896.0956.1434.239.2868.3824.3824.2869.1912.6215.239.9561 0 .2868-.239.4302-.5258.3346-.9083-.0478-.239-.1434-.4302-.2868-.6214-.5258-.8126-.9561-1.6731-1.0995-2.6291-.0478-.4302-.1912-.9561-.717-.9083-.5736.0478-.6692.5737-.717 1.0517zm-10.7562-30.3547c-1.8643-.2868-3.3462-1.0994-4.3022-2.7247-.1434-.239-.239-.478.0478-.717.3346-.239.5258 0 .6692.1912.7171 1.0516 1.7687 1.4818 2.9638 1.7209.1195.0239.251.0478.3824.0717.1315.0239.2629.0478.3824.0717.4302.0956.717.2868.6692.7648-.0943.519-.4681.5723-.7996.6196zm-35.6581 9.7043c.5737-.8605.8605-1.8643 1.0995-2.7726.0478-.5258 0-.9082-.3824-1.0038s-.5737.1912-.7171.478l-1.434 2.5813c-.0956.239-.1434.4303-.1434.6693 0 .5736.478.8604 1.0038.5736.239-.0956.4302-.2868.5736-.5258zm16.202-7.7442c.5736.0478 1.0995.0956 1.5297.3824.3346.1912.478.478.3824.8605-.0956.3346-.3824.478-.6692.5258-.1912.0478-.3824.0478-.5736 0-.7171-.1912-1.4819-.239-2.2468-.239-.2868 0-.6214-.0478-.717-.4302-.0956-.4303.1912-.6215.5258-.7649.5622-.2342 1.1703-.2848 1.7343-.3317zm14.9157-1.1954c.7171.8604 1.7209 1.2907 2.8204 1.5297.478.0478.8604-.1912.9082-.4781 0-.4302-.3346-.5258-.6692-.6214-.8605-.1912-1.5775-.6692-2.1989-1.3385-.1912-.1912-.3346-.3346-.5259-.478-.3824-.2868-.717-.0956-.7648.3824-.0478.3825.1912.7171.4302 1.0039z" fill="#202124" fill-rule="evenodd"/><path d="m47.7758 85.3958c-1.0038.0478-1.9121-.0956-2.7725-.3346-2.3901-.6693-3.5852-2.4379-4.3022-4.6368-.0478-.0956-.0478-.2391-.0956-.3347-.0478-.2868.0478-.5258.3346-.6214s.5258.0478.6692.2868c.3347.6214.7171 1.1951 1.0517 1.7687.6692 1.1951 1.7209 1.7687 3.0115 2.1033 1.9599.478 3.872.1434 5.6885-.6214 2.5813-1.0517 4.8758-2.5335 6.9313-4.35.4781-.3825.9083-.8127 1.4819-1.0995.2868-.1434.5736-.1912.8605.0478.239.239.1912.5736.0956.8605-.1435.3346-.4303.6214-.7171.8604-2.6291 2.4379-5.5928 4.35-9.0346 5.4973-1.0995.4302-2.1511.6692-3.2028.5736z" fill="#202124"/><path d="m30.0385 43.903c-.7649-.3346-1.1951-1.0038-1.4341-1.8165-.8126-2.6291-.3824-5.1148.9082-7.5049.1913-.3824.4781-.7649.7171-1.1473.6692-.8126 1.434-.3824 2.1989-.1434.717.239.9082.8605.9082 1.5297v2.9637c.0478.4303 0 .8127 0 1.2429 0 .717.3346 1.0038 1.0517 1.0038.717 0 1.0038-.3346 1.0516-1.0516.0478-1.0995-.1434-2.1989.1912-3.2506.8127-.717 1.6731-.4302 1.8165.7171.1434 1.0038.2868 2.0555.2868 3.0593.0478 1.6731.2869 3.3462.5259 5.0193.1434.956.6214 1.3384 1.5296 1.2428 2.3902-.239 4.7803-.478 7.1704-.8126 1.3862-.1912 1.6731-.478 1.7209-1.9599.0478-2.5335.1434-5.1149-.0478-7.6484-.0956-1.2906.1434-1.5775 1.3862-1.7209 1.0039-.0956 1.9599-.239 2.9638-.2868.8604-.0478 1.1472.2868 1.2428 1.0995.2868 2.7247.6215 5.4494.9083 8.1742.1434 1.434.3824 1.673 1.8165 1.5296 2.7247-.3346 5.4972-.478 8.1742-.8604 1.3384-.1912 1.7686-.6214 1.6252-1.9599-.1912-1.9121-.239-3.8242-.478-5.6885-.0478-.4302-.1912-.9082.0956-1.3384.6692-.239.7649.3346.9561.6692.5258 1.0038.8126 2.1033 1.0516 3.2506.0956.4302-.0478 1.0516.6692 1.0038.7171-.0478.7649-.6214.8127-1.1473 0-1.8642 0-3.7285 0-5.5928.1434-1.5775.8604-1.9599 2.3901-1.2429 1.3863 1.5297 2.2467 3.2506 2.2945 5.3061.0478 1.8643-.6214 3.3939-2.0077 4.6368-.478-.239-.3346-.9082-.8126-1.2429-.6215.7171-.0956 1.9121-.9561 2.4858-1.6731.5736-1.6252.5736-1.6252 2.3423.0478 1.9121.0478 3.8242-.1913 5.7362-.3824 2.9638-1.673 5.4973-3.5851 7.7918-2.1989 2.5813-4.7803 4.589-7.8396 6.0231-2.9637 1.3385-6.0231 1.5297-9.1302.6692-1.0995-.2868-2.1512-.717-3.2506-1.0994-2.2945-.7648-4.0154-2.2945-5.5451-4.111-2.1989-2.5813-3.5373-5.5929-4.3022-8.8912-.4302-1.7687-.8604-3.5852-.956-5.4017 0-.1434-.0478-.2868-.0956-.4302-.239-1.1473-.5737-1.3863-1.7687-1.1473-.239.0478-.4302.0956-.6692.1434-.4303-.0956-.4303-.478-.5259-.7648s-.0956-.6692-.4302-.9082c-.6214.2868.0478 1.3384-.8126 1.5296z" fill="#f1f3f4"/><path d="m56.9048 43.3772c-.478.0478-.7648 0-.8126-.6214-.239-2.677-.5258-5.3061-.8127-7.983-.0478-.2868 0-.5258 0-.8127 0-.3346.1435-.478.4781-.5258.0956 0 .239-.0478.3346-.0478 2.7725-.1912 5.5451-.3824 8.3654-.0956.478.0478.6214.239.6692.717.2868 2.4858.5736 5.0193.8605 7.505.0956.8126.0478.8605-.7171.9561-.956.1434-7.0747.7648-8.3654.9082z" fill="#f1f3f4"/><path d="m47.8707 42.182v.8127c.0478 1.195.0478 1.195-1.0994 1.3384-2.3424.2869-4.6847.5737-7.027.8605-.7648.0956-.8126.0956-.9082-.7171-.1434-1.0038-.239-2.0554-.2868-3.0593-.0956-1.5297-.1913-3.0593-.2391-4.589-.0478-1.0995-.0478-1.0995 1.0039-1.2907 2.4857-.4302 4.9714-.8126 7.4572-1.1472.5736-.0956.7648.0956.7648.6214 0 .1912.0478.3824.0478.5736.0478 2.2467.0956 4.4934.2868 6.5967z" fill="#f1f3f4"/><path d="m61.349 72.6672c-1.0994-2.5335-1.5296-5.0671-1.4818-7.6962-.4303-.1434-.6693.1912-.9561.3346-3.0593 1.6731-6.3577 1.9599-9.656 1.5775-1.6253-.1912-3.1072-1.0516-4.6369-1.5775-.3346-.0956-.5736-.3824-1.0038-.2868.1434 3.2506-.4302 6.4533-1.3863 9.6083 1.1473-.0478 2.1511-.3824 3.2506-.2868.5258.0478 1.0038.0956 1.3862.3824.5737.3824.4781.717-.1434 1.0516-.956.5259-2.0077.6693-3.0593.8127-.4623.0824-2.0192.2764-2.2945.8493.1962 2.389.8435 6.704 6.5159 6.493 7.7277-.5717 15.4376-9.2485 13.7996-9.3022-2.8681-.0956.6697-.1434-2.1985.0478-.5258.0478-1.1472.1434-1.3384-.5258-.1434-.4303.239-.7649 1.1472-1.0517.6693-.1434 1.2907-.239 2.0555-.4302z" fill="#f1f3f4"/><path clip-rule="evenodd" d="m33.0512 37.6891c0-.3328-.0052-.671-.0105-1.0109-.0107-.6851-.0214-1.3775.0105-2.0484 0-.5737-.1912-.9083-.7648-1.0517-.1208-.0322-.2403-.0685-.3588-.1045-.5851-.1777-1.1483-.3488-1.7445.0089-.0479.0048-.0972.0105-.1473.0164-.4504.0525-.9665.1126-1.0956-.4466-.0956-.5736.4781-.8126.9561-.9561.717-.239 1.434-.1912 2.1511 0 1.1472.3347 2.1989.8605 3.2505 1.3863.1241.0621.2483.1342.3756.2082.2652.1541.5444.3164.8673.4132 1.0236.2671 2.0471.0783 3.0321-.1033.073-.0134.1459-.0269.2184-.0401 3.1861-.662 6.4437-1.0733 9.68-1.4819.5025-.0635 1.0046-.1269 1.5058-.1911.5736-.0478 1.1472 0 1.6731.1434.9082-.0478 1.8165-.1434 2.6769-.5737 2.5813-.4302 5.1626-.6692 7.744-.239.6147.3757 1.3025.3854 1.9939.3951.2764.0039.5533.0078.8264.0351.2932.0367.474-.1795.6501-.3901.0536-.0641.1068-.1277.1625-.1835l.1457-.1181c.956-.7762 1.9267-1.5642 3.2005-1.7462.717-.0956 1.3863-.0956 2.0555.0956.3346.0956.6692.1912.7648.5737.0956.4302-.1434.717-.5258.9082-.0239.0239-.0597.0478-.0956.0717-.0358.0239-.0717.0478-.0956.0717h-.9082c-1.1951 0-1.1951 0-1.2429 1.1951-1.4341-.4781-2.0555-.1434-3.5374 1.8165.0627.7048.1356 1.4097.2087 2.1163.15 1.4497.3007 2.9064.365 4.3848 0 .1912.0106.3824.0212.5736.0213.3824.0425.7649-.0212 1.1473-.1912.8604-.4303 1.0516-1.3385 1.1472-1.1473.1434-2.2945.2868-3.394.3824-.6851.0638-1.3703.1328-2.0555.2019-1.3703.1381-2.7406.2761-4.111.3718-1.0516.0956-1.195-.0479-1.2906-1.0517-.2588-2.0268-.4786-4.0535-.6946-6.0452l-.0703-.6471c-.0267-.2409-.061-.4819-.0954-.7239-.0885-.6221-.178-1.2514-.1436-1.9052 0-.3825-.1434-.5259-.5258-.4781-.6453.0717-1.2907.1315-1.936.1912-.6453.0598-1.2907.1195-1.936.1912-.5258.0479-.6214.3347-.5736.7649.239 2.6769.239 5.3538.1434 8.0308 0 .3155-.0516.631-.1033.9465-.0344.2103-.0688.4206-.0879.6309-.0956.5259-.4302.8127-.9083.8605-1.3606.1361-2.7213.2829-4.087.4303-1.513.1632-3.0327.3272-4.5652.4779-1.0038.0956-1.0516.0478-1.2906-.956-.2767-1.3439-.39-2.7532-.502-4.1468-.0234-.2918-.0468-.5828-.0717-.8725-.0478-.6214-.0836-1.2548-.1195-1.8881-.0358-.6334-.0717-1.2668-.1195-1.8882-.0478-.6693-.6214-.9561-1.2906-.7171-.3051-.1109-.5619-.3023-.8265-.4995-.1914-.1426-.3869-.2883-.6076-.4087-.717-.3346-.8126 0-.8604.6214-.014.2368.0005.4776.015.7189.0353.587.0708 1.177-.3019 1.719h-.0956c-.1434-.1434-.1434-.239-.1434-.3346zm23.8536 5.6881c-.478.0478-.7648 0-.8126-.6214-.2179-2.4405-.4755-4.8411-.7367-7.2745l-.076-.7085c-.0315-.1894-.0214-.3579-.0109-.5331.0054-.0901.0109-.1821.0109-.2796 0-.3346.1435-.478.4781-.5258.0478 0 .1075-.0119.1673-.0238.0597-.012.1195-.024.1673-.024 2.7725-.1912 5.5451-.3824 8.3654-.0956.478.0478.6214.239.6692.717.143 1.2395.286 2.4908.4291 3.7422l.0011.0104c.1435 1.2548.2869 2.5096.4303 3.7524.0956.8126.0478.8605-.7171.9561-.6647.0997-3.8257.4306-6.1239.6711-1.0067.1054-1.8483.1934-2.2415.2371zm-9.0341-.3825v-.8127c-.1912-2.1033-.239-4.35-.2868-6.5967 0-.0956-.012-.1907-.0239-.2863-.012-.0956-.0239-.1917-.0239-.2873 0-.5258-.1912-.717-.7648-.6214-2.4858.3346-4.9715.717-7.4572 1.1472-.5205.0946-.7834.1429-.9104.3004-.1295.1606-.1176.435-.0935.9903.0478 1.5297.1435 3.0593.2391 4.589.0478 1.0039.1434 2.0555.2868 3.0593.0956.8127.1434.8127.9082.7171l7.027-.8605c.5669-.0708.8537-.1062.993-.2686.1425-.1661.1306-.4654.1064-1.0698z" fill="#202124" fill-rule="evenodd"/><path d="m52.7001 32.3826c-4.828.5259-9.656 1.0995-14.4362 2.1511-.7649.1434-1.2429 0-1.7209-.478.3346-.2868.6692-.6692 1.0038-.9082.7649-.5259 1.0995-1.2429 1.1951-2.1033.1434-1.4341 0-2.8204-.4302-4.1588-.2869-.9083-.3825-1.8643-.0957-2.916.4303.3346.5259.7171.7171 1.0517.4302.717.8604 1.434 1.4341 2.0555.9082.956 2.0076 1.195 3.2027 1.0994.5258-.0478 1.0517-.1434 1.5775-.239.7648-.1434 1.4341 0 2.0077.5258.0956.0956.239.1912.3346.2869 1.4341 1.673 3.2027 2.8681 5.2104 3.6329z" fill="#fff"/><path d="m70.7227 42.4215c.239-.5736.239-1.1473.3346-1.7687.0478-.239.0478-.5258.1434-.7648.0478-.239.0956-.5737.478-.5258.3346 0 .4302.2868.478.5258.1434.4302.239.8604.3346 1.2906.1434 1.2429.2869 2.4858.4303 3.7286.1912 1.7687.4302 3.5852.6214 5.3539.0478.3346.0478.6692 0 1.0038-.0956.5737-.5736 1.0039-1.0517 1.0039-.5736 0-.956-.2868-1.1472-.8127-.1912-.478-.239-.956-.239-1.4818-.1434-2.2945-.3346-4.5891-.239-6.8836 0-.1912 0-.4302-.1434-.6692z" fill="#fff"/><path d="m30.0469 43.9029c.3346-.5736.1434-1.195.3346-1.7687.0956-.1912.1434-.478.3824-.5258.3347-.0478.4303.239.5737.478.2868.5737.1434 1.2907.478 1.8643-.0956.6693.0478 1.2907.1434 1.9121.2868 2.2945.5736 4.589.8126 6.9314.0956 1.0994-.3346 1.7686-1.0994 1.8164-.6692.0478-1.2429-.5258-1.3385-1.5774-.1912-2.6292-.3824-5.2583-.2868-7.8874 0-.3824 0-.8126 0-1.2429z" fill="#fff"/><path d="m63.1268 31.5701c-.1434.1434-.3346.1912-.5258.1434-2.1033-.0478-4.1588.0478-6.2621.239-.3347.0478-.6693.1434-.9561-.1434.7648-.3824 1.3385-1.0039 2.1511-1.2907 1.5297-.5736 2.916-.239 4.3022.3824.4302.1912.8605.4302 1.2907.6693z" fill="#e8eaed"/><g fill="#202124"><path d="m66.5169 34.2468c0-.239-.0956-.5259.1434-.7649.9083-.9082 2.3902-1.8165 3.5852-2.1989.3346.2868-.1434 5.4973-.0956 7.6484 0 .2868-.0478.5258-.4302.5736-.239.0478-.5258.1434-.7649.1912-.8126.0956-.8604 0-.956-.8604-.0956-1.6253-.5258-3.2028-1.4819-4.589z"/><path d="m33.0588 37.6892c.1912-1.1951 0-2.3901.1912-3.6808.8605.2868 1.5775.7171 2.2945 1.0995.239.1434.1912.3824.2868.5736-.0478 1.3385-.0956 2.6769-.0956 4.0154 0 .5258-.1912.717-.717.7648-2.0077.0478-2.0077.0478-1.9599-1.9599 0-.239 0-.5258 0-.8126z"/><path d="m50.9329 54.085c-1.4819-.0956-2.8204-.6215-4.0154-1.4819-.0956-.0956-.239-.1912-.2868-.2868-.1912-.1912-.239-.4302-.1434-.6692.1434-.2869.4302-.3347.717-.2391.5736.1913 1.0994.4303 1.6731.6215 2.4857.8126 4.6846.3824 6.5967-1.4819.6214-.6214 1.0516-.7648 1.4341-.4302.3824.3346.239.9082-.3347 1.5775-1.0994 1.2906-2.5813 1.8643-4.2066 2.1989-.4302.0478-.956.1434-1.434.1912z"/><path d="m51.8881 42.5644c1.7687-.3824 2.8681.1912 3.394 1.7687.478 1.4341-.1912 2.916-1.6253 3.633-.8605.4302-2.3901.1912-3.0594-.478-.239-.239-.4302-.5258-.1912-.8605.1912-.2868.478-.1912.7649-.0478.2868.1434.6214.3347.956.4781.9083.3824 1.8165 0 2.1989-1.0039.3824-.8604-.0478-2.0555-.8126-2.3901-.4302-.1912-.8127-.0478-1.1951.1912-1.0038.6214-1.4341.478-1.7209-.6692-.1912-.8605-.3346-1.7209-.478-2.5814-.0478-.1912 0-.3824.0478-.5258.0478-.239.239-.4302.5258-.4302.239 0 .3825.1434.4781.3824.1434.5258.2868 1.0039.3824 1.5297.0956.3346.0956.717.3346 1.0038z"/><path d="m62.5496 47.4405c-.0478.478-.478.8126-.956.7648s-.8126-.4302-.7648-.956c.0478-.4303.478-.7649.8604-.7649.478.0478.9082.5259.8604.9561z"/><path d="m63.6983 47.5364c-.4302 0-.8126-.3346-.8604-.7648 0-.4303.3346-.7649.8126-.8127.4302 0 .8127.3346.8605.7171 0 .478-.3824.8604-.8127.8604z"/><path d="m43.3345 48.827c-.0478.3825-.3824.7171-.7648.7171-.4303 0-.8127-.4302-.7649-.8127.0478-.3824.4303-.717.7649-.717.4302 0 .8126.3824.7648.8126z"/><path d="m62.5493 44.6679c0 .3825-.239.6215-.6214.7171-.3346.0956-.8127-.2868-.8127-.6215 0-.3824.239-.6692.6215-.717.3824-.1434.7648.1912.8126.6214z"/><path d="m41.3717 49.0178c-.0478.3825-.239.6215-.6693.6693-.4302 0-.6692-.239-.6692-.6215 0-.3824.239-.6692.6214-.6692.4781-.0478.6693.1912.7171.6214z"/><path d="m41.1816 46.2934c.0956-.3346.2869-.5258.6693-.478.3346.0478.5258.239.5258.5258 0 .3346-.239.5736-.6214.5736-.3346-.0478-.5259-.2868-.5737-.6214z"/><path d="m59.7301 41.9435c-.4302-.8605-.3824-1.7687-.3346-2.677 0-.1912.0956-.4302.1434-.6214.1434-.3824.478-.6214.9082-.6214.3824 0 .6215.2868.7171.6692.3346 1.0517.2868 2.1033.0956 3.155-.2391.956-1.2429.8604-1.5297.0956z"/><path d="m60.1133 35.0124c0 .2868-.1434.478-.3346.6215-.4302.4302-.717.9082-.956 1.4818-.0478.1912-.1912.3824-.2868.5259-.2391.2868-.5737.3824-.9561.1912-.3346-.1912-.478-.4781-.4302-.8605.0956-.8604 1.3385-2.2467 2.1989-2.3901.4302-.0478.7648.0956.7648.4302z"/><path d="m46.2929 41.7518v.3824c0 .4303-.2391.7649-.6693.8127-.4302.0956-.7648-.1434-.9082-.5258-.1434-.4303-.2868-.8605-.3346-1.2907-.0956-.478-.0956-.9561-.0956-1.4819 0-.6692.239-1.0038.6692-1.0038.5736-.0478.7648.3346.9082.8126.239.717.3825 1.4819.4303 2.2945z"/><path d="m41.3691 38.5497c.2869-1.0517.6693-2.1511 1.6253-2.916.1434-.0956.2868-.1912.478-.1912.5259-.0956.9083.2869.6215.7171-.5737.9082-.8605 1.9121-1.3385 2.8681-.1912.3824-.478.6214-.956.478-.3347-.1434-.3825-.5258-.4303-.956z"/><path d="m32.4339 53.3678c0 .4488-.3639.8127-.8127.8127s-.8126-.3639-.8126-.8127.3638-.8126.8126-.8126.8127.3638.8127.8126z"/><path d="m73.2093 50.9299c0 .4489-.3639.8127-.8127.8127s-.8126-.3638-.8126-.8127c0-.4488.3638-.8126.8126-.8126s.8127.3638.8127.8126z"/></g></svg>