<svg width="100" height="100" viewBox="0 0 100 100" fill="none" xmlns="http://www.w3.org/2000/svg">
<path d="M34.5003 83C34.3871 80.0505 33.0003 78 33.0003 78L27.0003 77.5C22.5837 77.5 17.044 74.9846 16.5004 66C15.9568 57.0154 23.5434 40.6165 27.6208 28.3648C24.5636 27.344 23.0093 24.6125 22.8644 21.8986C22.6575 18.0216 30.6784 11.0082 35.7746 8.96619C41.0246 6.86258 48.6848 7.26456 50.3835 7.26456C54.1212 7.26456 82.9017 13.0038 83.5003 37.5C83.8518 51.8845 70.0664 65.4165 62.6143 69.8846C65.1035 71.2845 67.5003 77 67.5003 79C67.5003 81 46.5003 98.5 43.0003 98C39.5003 97.5 36.7307 89.9545 34.5003 83Z" fill="white"/>
<path d="M91.9313 64.3212C92.9061 42.8427 72.9163 19.7722 60.6621 14.3481C42.1751 9.62473 30.7188 16.0208 19.6849 23.8864C11.5638 29.6756 6.78903 35.8601 8.26703 44.9708C9.74503 54.0816 19.1986 56.344 26.0606 62.072C32.9226 67.8 27.3006 82.2246 38.1804 88.5779C49.0602 94.9312 53.1235 84.0449 61.9043 77.9375C68.321 73.4744 90.9685 85.5337 91.9313 64.3212Z" fill="white"/>
<path d="M91.9324 64.321C92.9072 42.8425 72.9174 19.7721 60.6632 14.348C42.1762 9.62455 30.7199 16.0206 19.686 23.8862C11.5649 29.6754 6.79013 35.8599 8.26813 44.9706C9.74612 54.0814 19.1997 56.3439 26.0617 62.0719C32.9237 67.7999 27.3017 82.2245 38.1815 88.5777C49.0613 94.931 53.1246 84.0448 61.9054 77.9373C68.3221 73.4742 90.9696 85.5335 91.9324 64.321Z" fill="#20BEFF"/>
<path d="M59.7373 51.2183C59.6809 52.3461 59.2862 53.4175 59.2862 54.5453C59.2862 54.7708 59.1734 55.1092 59.5681 55.1656C59.7937 55.1656 59.9629 54.9964 60.0756 54.7708C60.414 54.0942 60.7523 53.4175 61.0906 52.7408C61.8237 51.3311 62.8951 50.2033 64.1921 49.2447C64.756 48.7935 65.4326 48.5116 66.1093 48.3424C67.4627 48.0041 68.4213 48.6244 68.7032 49.9777C69.0416 51.5566 68.7596 53.0228 67.7446 54.3197C66.8424 55.5039 65.771 56.4061 64.474 57.1392C62.9515 57.985 61.3162 58.6053 59.5681 59C58.7223 59.1692 58.2712 59.6203 57.8201 60.3534C56.072 63.2856 54.8314 66.3871 53.4781 69.4885C53.3653 69.714 53.1961 69.8832 53.3089 70.1088C53.76 71.1238 54.1547 72.0824 54.775 72.9846C55.057 73.4357 55.5081 73.1538 55.8464 72.9282C56.9742 72.2516 58.102 71.6313 59.2862 70.9546C60.2448 72.8719 61.4854 74.3944 62.8951 75.8605C63.0643 76.0297 63.2898 76.1988 63.459 76.4244C63.741 76.7627 65.3373 78.4258 65.0873 78.5617C63.1196 79.6318 59.8208 81.5479 56.1202 84.8225C50.4617 89.8295 47.0979 91.5343 42.9251 94.9994C39.0018 92.0863 34.3079 75.5843 35.113 75.5194C38.5459 75.2425 48.313 72.3079 48.094 72.292C47.8512 72.2744 48.3859 71.8198 47.8064 71.2899C47.2268 70.76 47.0964 70.8806 46.8227 70.9546C29.1838 75.7271 23.159 74.4492 21.5208 70.9546C18.9949 67.6996 19.9189 60.5913 26.242 43.3802C28.3621 37.3504 29.7387 28.2652 31.8529 28.4393C32.2809 28.4745 32.7222 28.4749 33.1779 28.4369C34.4184 28.3242 35.659 27.9294 36.7868 27.3655C37.4071 27.0272 37.8582 27.0836 38.4221 27.5911C40.2265 29.17 42.5385 29.8467 44.8505 30.0158C46.4294 30.1286 48.0083 29.7339 49.418 29.0008C49.8691 28.7753 50.0947 28.7753 50.3766 29.2828C51.8992 32.2714 54.6622 33.2864 57.7073 33.9067C59.9629 34.3578 61.9929 33.9067 63.9665 32.9481C64.474 32.7225 64.9815 32.4406 65.771 32.0459C63.7973 37.0645 61.8801 41.8576 60.414 46.8199C60.132 47.1582 60.0756 47.553 59.9629 47.9477C59.8501 48.3424 59.7373 48.7372 59.6245 49.1319C59.8501 49.7522 59.4554 50.4852 59.7373 51.2183Z" fill="#DADCE0"/>
<path d="M54.0042 43.4315C54.1479 44.0043 53.9951 44.3154 53.8101 44.4563C53.7484 44.5032 53.7484 44.5032 53.6867 44.5501C53.3314 44.7231 52.9115 44.5554 52.6297 44.1852C51.4704 42.5338 49.8793 41.2111 47.9974 40.4021C47.2663 40.0814 47.014 39.4939 47.3196 38.8715C47.6546 38.0319 48.427 37.6389 49.4517 37.8336C50.911 38.0872 51.818 39.151 52.6163 40.2001C53.4441 41.0318 53.6698 42.2243 54.0042 43.4315Z" fill="#202124"/>
<path d="M36.1687 31.7948L35.3849 31.5344C34.0549 31.2505 32.226 30.801 31.7524 31.9881C31.7524 31.9881 31.7287 32.0594 31.705 32.1306C31.4447 32.9141 32.395 33.3881 33.274 33.8384C33.6067 34.028 33.9629 34.1464 34.2243 34.3124C34.4857 34.4783 34.8183 34.6679 35.0797 34.8339C35.8875 35.2605 36.6003 35.7347 36.9337 36.6364C37.1004 37.0872 37.7181 37.3716 38.264 37.1576C38.8099 36.9435 39.1657 36.5872 39.3075 35.9225C39.7093 34.2369 38.616 33.2408 37.6418 32.6007C37.1903 32.2925 36.7152 32.0555 36.4301 31.9608C36.3113 31.8422 36.24 31.8185 36.1687 31.7948Z" fill="#202124"/>
<path d="M59.7354 51.2186C59.679 52.3464 59.2842 53.4178 59.2842 54.5456C59.2842 54.7712 59.1715 55.1095 59.5662 55.1659C59.7917 55.1659 59.9609 54.9967 60.0737 54.7712C60.412 54.0945 60.7504 53.4178 61.0887 52.7411C61.8218 51.3314 62.8932 50.2036 64.1901 49.245C64.754 48.7939 65.4307 48.5119 66.1074 48.3428C67.4607 48.0044 68.4193 48.6247 68.7013 49.9781C69.0396 51.557 68.7577 53.0231 67.7427 54.32C66.8404 55.5042 65.769 56.4064 64.4721 57.1395C62.9496 57.9854 61.3143 58.6056 59.5662 59.0004C58.7203 59.1695 58.2692 59.6207 57.8181 60.3537C56.07 63.286 54.8295 66.3874 53.4761 69.4888C53.3633 69.7144 53.1942 69.8835 53.307 70.1091C53.7581 71.1241 54.1528 72.0827 54.7731 72.985C55.055 73.4361 55.5061 73.1541 55.8445 72.9286C56.9723 72.2519 58.1001 71.6316 59.2842 70.9549C60.2429 72.8722 61.4834 74.3947 62.8932 75.8608C63.0623 76.03 63.2879 76.1992 63.4571 76.4247C63.739 76.763 64.0773 76.7631 64.4157 76.6503C64.8104 76.4811 64.9232 76.1428 64.9232 75.748C64.9232 74.9022 64.4157 74.3383 63.8518 73.7744C62.9496 72.8722 62.0473 72.0263 61.3143 70.9549C61.1451 70.673 60.9759 70.4474 60.8068 70.1655C67.5171 65.316 72.5358 59.1131 76.8778 52.2336C80.2611 46.933 81.5017 41.1813 81.3889 34.9784C81.3325 32.159 80.2611 29.6214 79.0206 27.1967C75.1861 19.6969 68.8705 14.9602 61.2579 11.8024C57.9873 10.449 54.5475 9.82874 51.1078 9.26484C47.3297 8.70095 43.5516 9.09567 39.8299 9.88513C38.1946 10.2235 36.7284 11.0129 35.2059 11.6332C32.1045 12.8738 29.6798 15.073 27.3678 17.3285C26.6347 18.0052 26.1272 18.8511 25.6197 19.6969C24.2664 21.9525 24.4355 24.0389 26.3528 25.787C28.27 27.535 30.4692 28.6628 33.1759 28.4373C34.4165 28.3245 35.657 27.9298 36.7848 27.3659C37.4051 27.0275 37.8562 27.0839 38.4201 27.5914C40.2246 29.1703 42.5366 29.847 44.8485 30.0162C46.4274 30.129 48.0063 29.7342 49.4161 29.0012C49.8672 28.7756 50.0928 28.7756 50.3747 29.2831C51.8972 32.2718 54.6603 33.2868 57.7053 33.907C59.9609 34.3582 61.9909 33.907 63.9646 32.9484C64.4721 32.7229 64.9796 32.4409 65.769 32.0462C63.7954 37.0649 61.8782 41.858 60.412 46.8202C60.1301 47.1586 60.0737 47.5533 59.9609 47.948C59.8481 48.3428 59.7354 48.7375 59.6226 49.1322C59.8481 49.7525 59.4534 50.4856 59.7354 51.2186Z" fill="#202124"/>
<path d="M37.745 75.2966C36.6173 75.353 35.4895 75.6349 34.3617 75.8041C31.8805 75.8605 29.3994 75.9733 26.9746 75.8041C23.4785 75.5785 19.1929 72.4208 18.5726 68.3607C18.2907 66.669 18.2907 64.9774 18.5162 63.2293C18.8546 60.4098 19.4748 57.6467 20.3207 54.94C20.9453 52.839 23.2042 47.2133 25.0203 41.6556C26.8111 36.1752 28.1564 30.7609 29.1923 28.8571C29.8125 28.6315 30.3201 28.6879 30.4328 29.4774C29.4941 31.6677 28.0939 36.8973 26.3734 42.3322C24.3732 48.6505 22.059 55.261 21.3921 57.9287C20.7154 60.7481 20.1515 63.5676 20.2643 66.4435C20.3771 70.4471 23.1966 72.8155 25.9032 73.5485C28.4972 74.2252 31.2039 74.1688 33.7978 73.6613C37.745 72.9282 41.5795 71.9133 45.4704 71.011C46.0907 70.8419 46.711 70.8419 47.3313 70.9547C47.726 71.011 47.9515 71.293 48.0643 71.6877C48.1771 72.0824 47.9515 72.4208 47.6132 72.5899C47.2749 72.8155 46.8801 72.9283 46.4854 73.0974C43.7223 73.9996 40.9029 74.7327 38.027 75.2402C37.9142 75.2402 37.8014 75.2402 37.745 75.2966Z" fill="#202124"/>
<path d="M40.9275 58.9564C39.4009 59.4449 37.8936 59.5772 36.3215 59.2595C33.7225 58.7788 31.4976 57.6577 29.6358 55.7706C29.4674 55.5829 29.2991 55.3952 29.0783 55.1867C28.7525 54.9368 28.4806 55.0113 28.3356 55.3785C28.2224 55.8188 28.1616 56.2798 28.0691 56.6676C27.7942 58.4385 27.4668 60.1887 27.6529 62.0203C28.1962 66.4787 32.4679 68.7112 36.4696 66.7145C39.1655 65.4146 41.4407 61.3416 40.9275 58.9564Z" fill="#202124"/>
<path d="M36.4037 45.1522C35.6706 45.9417 34.8248 46.5619 33.8661 47.0131C33.6406 47.1822 33.415 47.3514 33.1895 47.4642C30.9903 48.7047 31.2722 51.7498 32.9639 52.9903C34.2609 53.949 35.727 54.2309 37.3059 53.7234C37.5879 53.667 37.8698 53.4978 37.8134 53.1595C37.757 52.8212 37.4751 52.7648 37.1931 52.7648C36.6292 52.7648 36.1217 52.8212 35.5578 52.7648C33.9789 52.652 32.8511 51.4678 33.1331 49.4378C33.1895 49.0431 33.5278 48.8175 33.8098 48.592C34.5428 48.0845 35.2759 47.577 35.9526 47.0131C37.8134 45.5469 39.4487 43.7989 40.8021 41.7688C41.1968 41.1486 41.4787 40.5283 41.5915 39.7952C41.5915 39.626 41.6479 39.4569 41.4223 39.2877C40.8584 39.908 40.5765 40.7538 40.069 41.3741C39.5051 42.0508 38.9412 42.7275 38.3209 43.3477C37.6442 44.0244 37.0803 44.7011 36.4037 45.1522Z" fill="#202124"/>
<path d="M35.6568 41.0682C35.4876 39.4893 34.8109 38.1924 33.6268 37.2337C33.1193 36.839 32.499 36.8954 32.1606 37.2901C31.8223 37.7412 31.8787 38.2487 32.2734 38.6435C33.232 39.5457 33.7959 40.6171 34.1343 41.8577C34.2471 42.196 34.4726 42.478 34.9237 42.478C35.3185 42.4216 35.4876 42.1396 35.6004 41.7449C35.6004 41.6321 35.6568 41.5757 35.6568 41.4629C35.6568 41.2938 35.6568 41.181 35.6568 41.0682Z" fill="#202124"/>
<path d="M29.7899 40.7864C29.7899 41.4067 30.0718 41.6886 30.6921 41.6886C31.4252 41.6886 32.0455 41.0683 32.0455 40.3353C32.0455 39.715 31.5943 39.2075 30.9741 39.2075C30.3538 39.2639 29.7899 39.9969 29.7899 40.7864Z" fill="#202124"/>
<path d="M76.3133 34.5835C76.4261 38.5871 75.693 42.478 74.0577 46.1433C73.7758 46.7636 73.5502 47.3839 73.3811 48.0606C73.2683 48.3989 73.3247 48.7936 73.7194 49.0192C74.1705 49.3011 74.5089 49.132 74.8472 48.85C75.2983 48.4553 75.5803 47.9478 75.8622 47.3839C77.3283 44.5644 78.1178 41.5194 78.287 38.3052C78.3997 36.3879 78.5125 34.4143 78.0614 32.4971C77.9486 32.1023 77.8358 31.7076 77.7231 31.3693C77.5539 30.9745 77.2719 30.5798 76.8208 30.6926C76.4261 30.8054 76.3697 31.2001 76.3697 31.5948C76.3697 32.3279 76.4261 33.061 76.4261 33.7376C76.3133 34.076 76.3133 34.3015 76.3133 34.5835Z" fill="#F8F9FA"/>
<path d="M75.7504 28.2117C76.2015 28.2117 76.4271 27.9862 76.4271 27.5914C76.4271 27.2531 76.3143 26.9711 76.0888 26.7456C75.7504 26.3509 75.4685 25.787 74.8482 25.9561C74.5099 26.0689 74.3971 26.3509 74.4535 26.6892C74.5099 27.3659 75.2429 28.2117 75.7504 28.2117Z" fill="#E8EAED"/>
<path d="M28.8761 62.1407C29.0595 63.365 29.7026 64.3465 30.4603 65.1913C31.6706 66.5787 33.8183 66.8205 35.7826 65.838C36.9739 65.2778 37.0871 64.8375 36.2453 63.8988C34.9507 62.4175 33.5112 61.3035 31.3662 61.669C30.5187 61.8193 29.6602 61.844 28.8761 62.1407Z" fill="white"/>
<path d="M50.7691 47.7225C50.7691 46.2 50.3743 45.0722 49.4721 44.17C48.9082 43.5497 48.3443 43.4369 47.9496 43.7753C47.4421 44.2264 47.6113 44.7903 47.8932 45.2414C48.5699 46.2564 48.8518 47.3842 48.8518 48.5684C48.8518 49.1323 49.0774 49.5834 49.6413 49.6398C50.2616 49.6962 50.4871 49.1887 50.5999 48.6812C50.7127 48.2864 50.7127 47.8917 50.7691 47.7225Z" fill="#202124"/>
<path d="M45.4143 48.0606C46.2037 48.0042 47.0496 46.8201 46.9368 46.087C46.824 45.5795 46.3729 45.3539 45.9218 45.5231C45.3579 45.7487 44.6812 46.7637 44.7376 47.3276C44.7376 47.7787 45.0195 48.0606 45.4143 48.0606Z" fill="#202124"/>
<path d="M59.5181 51.0293C59.4609 52.1521 59.0603 53.2186 59.0603 54.3414C59.0603 54.5659 58.9459 54.9027 59.3465 54.9589C59.5754 54.9589 59.747 54.7904 59.8615 54.5659C60.2049 53.8923 60.5482 53.2186 60.8916 52.545C61.6355 51.1416 62.7228 50.0189 64.039 49.0646C64.6113 48.6155 65.298 48.3348 65.9847 48.1664C67.3581 47.8296 68.3309 48.4471 68.6171 49.7943C68.9604 51.3662 68.6743 52.8257 67.6442 54.1168C66.7286 55.2957 65.6413 56.1938 64.3251 56.9236C62.78 57.7657 61.1205 58.3832 59.3465 58.7761C58.4881 58.9445 58.0303 59.3936 57.5725 60.1234C55.7985 63.0424 54.5395 66.1299 53.1661 69.2174C53.0516 69.4419 52.8799 69.6103 52.9944 69.8349C53.4522 70.8453 53.8528 71.7996 54.4823 72.6978C54.7684 73.1469 55.2262 72.8662 55.5696 72.6417C56.7141 71.968 57.8586 71.3506 59.0603 70.6769C60.0332 72.5855 61.2921 74.1012 62.7228 75.5607C62.8945 75.7292 63.1234 75.8976 63.2951 76.1221C63.5812 76.4589 63.9245 76.4589 64.2679 76.3467C64.6685 76.1782 64.7829 75.8414 64.7829 75.4485C64.7829 74.6064 64.2679 74.0451 63.6956 73.4837C62.78 72.5855 61.8644 71.7435 61.1205 70.6769C60.9488 70.3962 60.7771 70.1717 60.6054 69.891C67.4153 65.0633 72.5084 58.8884 76.9148 52.0398C80.3484 46.763 81.6074 41.0371 81.4929 34.8622C81.4357 32.0554 80.3484 29.5293 79.0894 27.1154C75.1981 19.6493 68.7887 14.9339 61.0632 11.7903C57.7441 10.4431 54.2534 9.82556 50.7626 9.2642C46.9284 8.70284 43.0943 9.09579 39.3174 9.88169C37.6578 10.2185 36.17 11.0044 34.6249 11.6219C31.4774 12.8569 29.0167 15.0462 26.6705 17.2916C25.9265 17.9653 25.4115 18.8073 24.8964 19.6493C23.523 21.8948 23.6947 23.9718 25.6404 25.712C27.5861 27.4522 29.8179 28.575 32.5647 28.3504C33.8237 28.2381 35.0827 27.8452 36.2272 27.2838C36.8567 26.947 37.3145 27.0032 37.8867 27.5084C39.718 29.0802 42.0642 29.7538 44.4105 29.9222C46.0128 30.0345 47.6151 29.6415 49.0458 28.9118C49.5036 28.6872 49.7325 28.6872 50.0186 29.1925C51.5637 32.1677 54.3678 33.1781 57.458 33.7956C59.747 34.2447 61.8072 33.7956 63.8101 32.8413C64.3251 32.6168 65.6413 31.8061 65.6413 31.9431C65.6413 32.0801 61.6927 41.7108 60.2049 46.6507C59.9187 46.9876 59.8615 47.3805 59.747 47.7735C59.6326 48.1664 59.5181 48.5594 59.4037 48.9523C59.6326 49.5698 59.232 50.2996 59.5181 51.0293Z" fill="#80868B"/>
<path fill-rule="evenodd" clip-rule="evenodd" d="M59.4754 50.9036C59.4875 50.9455 59.5017 50.9874 59.5181 51.0293C59.5049 51.289 59.4733 51.5457 59.4325 51.8008C59.4311 51.8096 59.4297 51.8185 59.4283 51.8273C59.3883 52.0735 59.3401 52.3182 59.2919 52.5627C59.2669 52.6895 59.2419 52.8163 59.2181 52.9432C59.1417 53.3505 59.0773 53.7589 59.0632 54.1744C59.0613 54.2299 59.0603 54.2856 59.0603 54.3414C59.0603 54.3809 59.0568 54.424 59.0531 54.4683C59.036 54.6759 59.0165 54.9126 59.3465 54.9589C59.5754 54.9589 59.747 54.7904 59.8615 54.5659L60.8916 52.545C61.0873 52.1757 61.3069 51.8258 61.5481 51.4933C62.2236 50.5624 63.0692 49.7678 64.039 49.0646C64.6113 48.6155 65.298 48.3348 65.9847 48.1664C67.3581 47.8296 68.3309 48.4471 68.6171 49.7943C68.9604 51.3662 68.6743 52.8257 67.6442 54.1168C66.7286 55.2957 65.6413 56.1938 64.3251 56.9236C62.78 57.7656 61.1205 58.3831 59.3465 58.7761C58.4881 58.9445 58.0303 59.3936 57.5725 60.1234C56.0871 62.5674 54.9628 65.1296 53.8301 67.711C53.61 68.2126 53.3895 68.715 53.1661 69.2174C53.1407 69.2671 53.1126 69.314 53.0854 69.3594C52.9896 69.5192 52.9053 69.66 52.9944 69.8349C53.0456 69.9479 53.096 70.0601 53.1462 70.1717C53.5446 71.058 53.9232 71.9001 54.4823 72.6978C54.7684 73.1469 55.2262 72.8662 55.5696 72.6417C56.1328 72.3101 56.6961 71.9922 57.2662 71.6745C57.5034 71.5423 57.7418 71.4101 57.9819 71.277C58.2457 71.1308 58.5115 70.9835 58.7799 70.8337C58.873 70.7818 58.9665 70.7295 59.0603 70.6769C59.0765 70.7086 59.0927 70.7402 59.1091 70.7717C59.255 71.0534 59.4073 71.3265 59.5654 71.5922C59.5836 71.6228 59.6019 71.6534 59.6203 71.6838C59.7319 71.8685 59.8464 72.0497 59.9637 72.2276C60.3575 72.8255 60.7823 73.3871 61.2331 73.9269C61.7032 74.4898 62.2016 75.029 62.7228 75.5607C62.778 75.6149 62.8392 75.6691 62.9025 75.7252C63.0359 75.8434 63.1786 75.9698 63.2951 76.1221C63.5812 76.4589 63.9245 76.4589 64.2679 76.3467C64.6685 76.1782 64.7829 75.8414 64.7829 75.4485C64.7829 75.3107 64.7691 75.1804 64.7436 75.0564C64.7366 75.0229 64.7288 74.9897 64.7202 74.9571C64.6856 74.8256 64.6375 74.7011 64.5788 74.5822C64.5489 74.5218 64.5164 74.4628 64.4813 74.4051C64.2788 74.0712 63.9951 73.7774 63.6956 73.4837C63.5808 73.3711 63.466 73.2594 63.3516 73.148C63.1547 72.9564 62.9588 72.7657 62.7657 72.5732C62.1755 71.9851 61.6107 71.3798 61.1205 70.6769C61.0346 70.5366 60.9488 70.4103 60.863 70.284C60.7815 70.1642 60.7001 70.0444 60.6187 69.9126C60.6143 69.9054 60.6099 69.8982 60.6054 69.891C60.693 69.8289 60.7804 69.7666 60.8674 69.704C67.5462 64.9043 72.5651 58.8003 76.9148 52.0398C80.3484 46.763 81.6074 41.0371 81.4929 34.8622C81.4357 32.0554 80.3484 29.5293 79.0894 27.1154C75.1981 19.6493 68.7887 14.9339 61.0632 11.7903C57.7441 10.4431 54.2534 9.82556 50.7626 9.2642C46.9284 8.70284 43.0943 9.09579 39.3174 9.88169C38.1052 10.1277 36.9846 10.6133 35.8665 11.0979C35.4538 11.2767 35.0414 11.4554 34.6249 11.6219C31.4774 12.8569 29.0167 15.0462 26.6705 17.2916C25.9265 17.9653 25.4115 18.8073 24.8964 19.6493C23.523 21.8948 23.6947 23.9718 25.6404 25.712C27.5861 27.4522 29.8179 28.575 32.5647 28.3504C33.8237 28.2381 35.0827 27.8452 36.2272 27.2838C36.8567 26.947 37.3145 27.0032 37.8867 27.5084C39.718 29.0802 42.0642 29.7538 44.4105 29.9222C46.0128 30.0345 47.6151 29.6415 49.0458 28.9118C49.5036 28.6872 49.7325 28.6872 50.0186 29.1925C51.5637 32.1677 54.3678 33.1781 57.458 33.7956C59.4188 34.1803 61.2117 33.9059 62.9445 33.2195C63.2312 33.1059 63.5163 32.981 63.8002 32.846C63.8035 32.8444 63.8068 32.8429 63.8101 32.8413C64.0129 32.7529 64.34 32.5735 64.662 32.397C65.0285 32.1961 65.3883 31.9988 65.551 31.9431C65.6084 31.9235 65.6413 31.9215 65.6413 31.9431C65.6413 31.9782 65.3831 32.6339 64.9739 33.6733C64.9545 33.7226 64.9348 33.7727 64.9148 33.8236C64.8292 34.041 64.7376 34.2736 64.641 34.5195C64.6302 34.5471 64.6192 34.5749 64.6082 34.6029C64.5917 34.645 64.575 34.6874 64.5582 34.7302C63.2777 37.9914 61.1957 43.3611 60.2049 46.6507C59.9731 46.9235 59.8915 47.2331 59.8081 47.5497C59.7885 47.624 59.7688 47.6987 59.747 47.7735L59.4037 48.9523C59.5121 49.2448 59.4793 49.5624 59.4452 49.8933C59.4113 50.221 59.3762 50.5616 59.4754 50.9036ZM61.7371 48.2956C61.7636 48.2029 61.7888 48.1072 61.8066 48.0393C61.8115 48.0207 61.8159 48.0042 61.8195 47.9904C61.8352 47.9317 61.8461 47.8929 61.8545 47.8651L62.0597 47.6236L62.1803 47.2233C62.8995 44.8351 64.2323 41.2586 65.4076 38.2107C65.9783 36.7309 66.5049 35.3933 66.8959 34.4L66.9226 34.3322C67.1185 33.8346 67.2809 33.422 67.3941 33.1298C67.4502 32.985 67.4981 32.8599 67.5332 32.765C67.5499 32.7197 67.5693 32.6663 67.5864 32.6153C67.5942 32.592 67.6086 32.5486 67.6231 32.4972C67.6301 32.4726 67.6431 32.4253 67.6559 32.366L67.6566 32.3628C67.6636 32.3309 67.7011 32.1597 67.7011 31.9431C67.7011 31.5172 67.5583 30.9631 67.0996 30.5098C66.6831 30.098 66.2097 29.9735 65.9521 29.933C65.5073 29.8631 65.1481 29.9562 65.0687 29.9767C65.0664 29.9773 65.0643 29.9779 65.0625 29.9784C64.8313 30.0377 64.6334 30.1278 64.5557 30.1634C64.3517 30.257 64.113 30.3847 63.9214 30.4888C63.794 30.5579 63.678 30.6214 63.5736 30.6785C63.2834 30.8374 63.0826 30.9473 62.9735 30.9949L62.9416 31.0088L62.9101 31.0238C61.1995 31.8388 59.6022 32.1549 57.8652 31.8149C54.9115 31.2243 52.9479 30.3816 51.854 28.2753L51.8372 28.2429L51.8192 28.2112C51.6248 27.8679 51.1223 27.0577 50.0737 26.8128C49.1514 26.5974 48.3775 26.9796 48.1451 27.0944C48.1377 27.0981 48.1309 27.1014 48.1246 27.1045L48.11 27.1117L48.0955 27.1191C46.9469 27.705 45.7224 27.9881 44.5587 27.9069C42.4921 27.7582 40.6353 27.1784 39.252 25.9953C38.8105 25.608 38.1853 25.1881 37.3543 25.078C36.517 24.967 35.8065 25.2136 35.2792 25.4897C34.3321 25.9507 33.3341 26.2518 32.3859 26.3374C30.4015 26.4973 28.7119 25.7248 27.0282 24.2189C26.3447 23.6075 26.1197 23.0805 26.0711 22.6485C26.0198 22.1918 26.1343 21.5529 26.6627 20.6889C27.2033 19.8052 27.5765 19.2211 28.0676 18.7764L28.0885 18.7574L28.1089 18.7379C30.451 16.4965 32.6577 14.57 35.3899 13.498L35.3959 13.4956L35.402 13.4932C35.9539 13.2726 36.4395 13.062 36.8877 12.8677C37.9173 12.4212 38.7497 12.0603 39.7347 11.8604L39.7398 11.8593L39.7448 11.8583C43.3872 11.1004 46.9492 10.7512 50.4442 11.2606C53.9353 11.8221 57.2044 12.411 60.274 13.6567M61.7371 48.2956C62.0741 48.0014 62.4245 47.7238 62.7853 47.461C63.6451 46.796 64.6146 46.4196 65.4851 46.2062C66.568 45.9406 67.7682 45.9925 68.8127 46.643C69.8508 47.2896 70.4075 48.3237 70.6323 49.3764C71.0905 51.4804 70.7025 53.5556 69.2749 55.3514C68.1776 56.7613 66.8732 57.8318 65.3387 58.6827L65.3321 58.6863L65.3255 58.6899C63.6041 59.628 61.7598 60.313 59.8002 60.7471L59.7754 60.7526L59.7504 60.7574C59.6755 60.7721 59.6419 60.7864 59.6335 60.7902C59.6269 60.7932 59.6237 60.795 59.6158 60.8013C59.5909 60.8214 59.5049 60.8999 59.3339 61.171C57.9278 63.4871 56.8667 65.9037 55.7361 68.4788C55.5572 68.8863 55.3765 69.2977 55.1925 69.7133C55.2946 69.9379 55.3913 70.1472 55.4874 70.3452C55.9894 70.0607 56.4933 69.7813 56.9945 69.5034C57.3444 69.3095 57.6929 69.1162 58.0384 68.9226L59.9289 67.8628L59.9324 67.8696C66.1918 63.3021 70.9672 57.4981 75.1729 50.9613L75.1757 50.957L75.1786 50.9526C78.3497 46.0792 79.5419 40.7659 79.4335 34.9009C79.3856 32.575 78.4844 30.3917 77.2557 28.0358C73.6483 21.1146 67.6898 16.6744 60.274 13.6567" fill="#202124"/>
<path d="M56.1699 22.4359C53.3765 25.3041 51.9525 25.8815 48.1848 27.2602C47.5436 27.4898 46.7372 27.7558 45.961 28.1295C45.6398 28.2841 45.3959 28.5994 45.509 29.0396C45.6208 29.5594 45.9777 29.6844 46.4154 29.7308C47.0126 29.7796 47.573 29.6285 48.1738 29.4382C51.2169 28.527 54.1306 26.9123 56.554 24.796C58.5562 23.4042 56.9992 22.0458 56.1699 22.4359Z" fill="#202124"/>
<path d="M42.3168 21.1272C39.5234 23.9954 38.0993 24.5728 34.3317 25.9515C33.6904 26.1811 32.884 26.4472 32.1079 26.8208C31.7867 26.9755 31.5428 27.2907 31.6558 27.7309C31.7676 28.2508 32.1245 28.3757 32.5623 28.4221C33.1595 28.4709 33.7198 28.3198 34.3206 28.1295C37.3638 27.2183 40.2775 25.6036 42.7009 23.4873C44.7031 22.0955 43.146 20.7371 42.3168 21.1272Z" fill="#202124"/>
<path d="M74.223 27.8362C74.448 27.8362 74.5605 27.6406 74.5605 27.2983C74.5605 27.0049 74.5043 26.7604 74.3918 26.5648C74.223 26.2225 74.0824 25.7335 73.773 25.8802C73.6042 25.978 73.5479 26.2225 73.5761 26.5159C73.6042 27.1027 73.9699 27.8362 74.223 27.8362Z" fill="#202124"/>
</svg>
