<svg width="100" height="100" viewBox="0 0 100 100" fill="none" xmlns="http://www.w3.org/2000/svg">
<path d="M14.482 63.9468C14.7094 64.2894 10.6638 62.4682 11.7522 64.9745C13.681 69.4159 32.8857 65.0687 39.2915 63.9468C62.7629 59.8358 68.3119 92.9267 76.4758 96.5028C85.0502 100.259 94.0953 96.734 96.8858 88.3289C98.6706 82.9532 98.2974 76.396 95.8653 71.4704C93.6764 67.0372 89.2946 63.3048 85.114 61.2061C83.0667 60.1784 73.7811 58.85 74.8776 56.41C77.5821 50.3918 80.4077 45.3265 79.9313 40.8185C79.4969 36.7088 76.3182 33.0623 67.8016 29.5794C69.2446 22.8188 65.3141 12.9759 62.2527 11.4433C57.0864 8.85708 54.0249 11.6168 53.5146 11.1883C51.9839 9.90281 52.0507 9.31233 48.4122 8.4485C42.2892 8.4485 42.047 10.1542 41.7789 10.1666C41.4782 10.1804 36.0224 6.57847 27.4919 8.63396C22.6847 9.79232 15.7562 13.7426 13.1169 17.3556C-1.80188 18.7827 3.49713 37.6256 5.95152 36.8828C6.58228 36.7208 4.79581 51.9313 18.2354 56.0674V58.1229C16.9842 57.6661 13.936 57.3692 11.7522 59.8358C9.56843 62.3024 12.6621 63.6042 14.482 63.9468Z" fill="white"/>
<path d="M21.4939 26.817C13.6436 33.3612 8.3473 39.7691 8.3473 39.7691C-0.460282 49.6941 4.82174 67.0177 17.8391 70.8989C27.5635 73.8009 38.2731 66.0727 48.0027 68.9704C57.742 71.8696 66.5127 85.3757 76.2565 88.2809C81.8336 89.9484 87.0478 88.6006 90.8531 85.4284C95.9302 81.196 98.4999 73.7044 96.0818 65.7662C96.0818 65.7662 80.0181 20.5452 57.6342 13.8989C45.1827 10.1941 31.3302 18.6173 21.4939 26.817Z" fill="#20BEFF"/>
<path d="M21.4939 26.817C13.6436 33.3612 8.3473 39.7691 8.3473 39.7691C-0.460282 49.6941 4.82174 67.0177 17.8391 70.8989C27.5635 73.8009 38.2731 66.0727 48.0027 68.9704C57.742 71.8696 66.5127 85.3757 76.2565 88.2809C81.8336 89.9484 87.0478 88.6006 90.8531 85.4284C95.9302 81.196 98.4999 73.7044 96.0818 65.7662C96.0818 65.7662 80.0181 20.5452 57.6342 13.8989C45.1827 10.1941 31.3302 18.6173 21.4939 26.817Z" fill="#20BEFF"/>
<path d="M14.5206 19.5102C17.7764 15.247 22.1146 12.68 27.284 11.4692C30.5027 10.7154 33.7585 10.5155 37.0486 11.0838C39.7503 11.5521 42.0408 12.857 44.2199 14.4246C46.7846 16.3378 48.8095 18.8134 51.0885 21.0236C51.3199 21.2491 51.4655 21.5689 51.951 21.7488C52.5651 20.0127 52.3566 18.4165 51.5169 16.8489C51.1885 16.235 50.6116 15.7181 50.7201 14.9215C53.2705 12.9569 56.1379 12.4944 59.2281 13.1739C61.7956 13.7393 63.3807 15.3469 64.1032 17.8512C64.5545 19.4188 64.7058 21.0178 64.7001 22.6426C64.6944 24.1645 64.6687 25.6893 64.703 27.2113C64.7544 29.4985 64.933 31.6089 67.1635 32.1572C67.7176 32.2914 69.6838 33.8045 70.2207 33.993C75.9127 36.0032 78.9538 39.3231 77.0146 45.0654C76.2035 47.4669 74.3204 49.906 73.278 52.1989C72.7439 53.3782 71.8029 54.2152 71.683 55.5116C71.4688 57.8102 72.3227 59.6006 74.2305 60.8798C75.273 61.5794 76.4325 62.0163 77.6748 62.1705C80.1938 62.4846 82.59 63.2727 84.9747 64.0836C86.2513 64.5176 87.3423 65.2915 88.3419 66.1909C91.4664 69.0064 93.7112 72.3415 94.4537 76.5619C94.7821 78.4265 95.0103 85.7561 93.1857 87.9637C93.1028 90.7391 78.8258 97.5208 74.4333 89.8854C71.4631 84.7227 68.1387 79.7914 64.1204 75.3654C61.8042 72.8184 59.1995 70.5997 56.2493 68.8122C52.9621 66.822 49.3607 66.4565 45.7821 67.513C42.1408 68.5895 40.1873 71.4392 39.379 75.077C39.2248 75.7709 39.1963 76.4905 39.082 77.1958C38.9992 77.7126 38.7222 78.0924 38.1652 78.1352C37.6369 78.1752 37.2428 77.9154 37.0314 77.4328C36.6373 76.5305 36.6202 75.5939 36.8001 74.6373C37.2199 72.3901 38.2195 70.4141 39.6218 68.638C40.2073 67.8956 40.8584 67.1989 41.5267 66.4279C41.0155 66.011 40.4329 66.1966 39.9045 66.1738C34.5296 65.9425 29.186 65.4628 23.9225 64.2892C23.4598 64.1864 22.9971 64.0693 22.5373 63.9465C21.0437 63.5439 21.0608 63.5496 20.4153 64.866C20.0583 65.5884 19.6357 66.2794 19.233 66.9819C19.033 67.3302 18.7703 67.6329 18.3219 67.4416C17.9392 67.2788 17.9963 66.9105 18.0335 66.5793C18.1334 65.6798 18.3533 64.806 18.5732 63.9294C18.8217 62.9329 18.7217 62.7901 17.7393 62.5188C16.8225 62.2675 15.9 62.0391 14.9804 61.7935C14.3378 61.6222 13.778 61.3081 13.9037 60.54C14.0237 59.8004 14.632 59.6063 15.3031 59.5948C16.4084 59.5777 17.4708 59.8376 18.5361 60.086C19.5528 60.323 19.5585 60.3201 19.8042 59.3835C20.0698 58.3727 20.3068 57.3505 20.5924 56.3454C20.7523 55.7857 20.6324 55.4944 20.0498 55.2717C12.7042 52.462 9.16564 46.7568 7.949 39.2984C8.05426 38.6571 7.71376 37.1225 7.949 36.5659C8.18424 36.0094 8.32298 36.9171 8.28037 36.9307C9.99016 37.6508 10.1473 37.7673 10.7032 38.419C11.3344 41.4229 12.3472 44.3382 14.0722 46.9081C16.7825 50.9486 20.6238 52.8246 25.3819 53.033C26.3786 53.0759 27.3782 53.0159 28.3492 53.3329C29.1261 53.5841 29.5373 54.0838 29.5173 54.9119C29.4973 55.7486 29.029 56.2369 28.255 56.4196C27.1355 56.6852 25.9874 56.7708 24.8564 56.5681C23.814 56.3796 23.3541 56.8336 23.1714 57.7816C22.5602 60.9597 21.7605 60.7884 25.4304 61.5794C29.4831 62.4531 33.59 62.8586 37.7254 63.0271C38.4394 63.0556 39.1477 63.0928 39.8503 63.227C40.8499 63.4183 41.1926 63.0299 41.1583 61.9906C41.0755 59.4292 40.887 56.8565 41.4153 54.3151C42.0694 51.1742 42.9576 48.1274 45.0367 45.5803C45.8193 44.6209 46.6389 43.6872 47.8699 43.2731C48.7181 43.2275 49.0779 43.9128 49.5606 44.4125C52.1253 47.0737 55.3725 47.068 57.7772 44.4867C59.5679 42.565 59.5651 38.1362 56.5749 36.7599C55.9608 36.4772 55.1954 36.2716 55.0184 35.435C55.0127 34.8867 55.2583 34.4127 55.561 33.993C56.2207 33.0878 56.315 32.077 56.2436 31.0147C56.1636 29.844 55.7324 28.8903 54.6071 28.3934C53.4133 27.868 52.388 28.3135 51.4455 29.0473C50.9914 29.3986 50.6944 29.8983 50.3231 30.3266C49.8433 30.8805 49.2778 31.1375 48.5581 30.8091C47.8984 30.5093 47.6042 29.9183 47.7985 29.2929C48.1669 28.1022 47.5871 27.9937 46.6275 27.9194C45.785 27.8509 44.9168 27.8995 44.0857 27.6625C43.3688 27.4254 42.969 26.8201 42.5006 26.2947C40.8013 24.393 38.9535 22.7397 36.2175 22.5683C35.1208 22.4998 34.0526 22.6597 32.9874 22.8767C32.3876 22.9995 31.7936 23.208 31.1824 22.9424C28.2122 21.4233 25.5789 19.4531 23.4027 16.9174C22.7372 16.1407 22.1832 16.1008 21.3607 16.6776C19.8099 17.7626 18.5875 19.2332 17.0053 20.2754C16.0628 20.3896 15.1346 20.4696 14.5206 19.5102Z" fill="#202124"/>
<path d="M21.3047 13.8139C23.4242 12.5709 25.7089 11.3646 27.9968 10.8319C32.8492 9.70198 38.2554 9.45997 42.4432 12.4551C45.3866 9.52889 51.3223 10.1143 53.5753 13.4742C58.2284 11.6054 62.6189 12.758 64.1133 17.9071C64.9913 20.9397 65.7337 25.3086 65.8042 28.4209C65.8742 31.5162 69.2057 33.3672 71.5789 34.1954C77.2886 36.2002 79.6725 39.8346 77.7272 45.5613C76.5292 49.0877 72.9497 51.8166 72.598 55.5959C72.2591 59.2114 74.6169 60.9491 78.033 61.3706C81.6998 61.8252 86.4294 63.2697 89.2428 65.7866C92.377 68.5945 94.2727 72.4478 95.0176 76.6567C95.347 78.5163 94.9308 84.3828 93.6588 88.2062C91.408 94.9716 78.7027 98.1988 74.2964 90.584C71.317 85.4353 67.1176 79.7119 63.0867 75.2979C58.6707 71.2216 52.5562 66.8057 44.9873 67.8247C42.0258 68.2235 41.6538 68.4587 41.3464 66.1263C41.2312 63.6509 41.1588 63.7987 41.0967 61.9272C40.9129 56.2744 41.2036 50.1696 44.9873 45.5613C45.7722 44.6045 46.5945 43.6733 47.8292 43.2604C48.6801 43.2148 49.0411 43.8983 49.5252 44.3966C52.0979 47.0507 55.3553 47.045 57.7675 44.4707C59.5638 42.5542 59.561 38.1373 56.5614 36.7647C55.9455 36.4828 55.1777 36.2778 55 35.4434C54.9943 34.8966 55.2407 34.4239 55.5444 34.0053C56.7156 32.4077 56.5991 29.304 54.5875 28.4209C52.7139 27.6011 51.3832 29.0952 50.2902 30.3488C49.8089 30.9013 49.2416 31.1576 48.5197 30.8301C47.8579 30.5311 47.5628 29.9416 47.7576 29.3179C48.1272 28.1304 47.5456 28.0222 46.583 27.9482C45.7379 27.8798 44.8669 27.9282 44.0332 27.6919C43.3142 27.4555 42.9131 26.8518 42.4432 26.3278C39.7636 23.3464 36.8127 22.1267 32.9003 22.9191C32.2987 23.0415 31.7028 23.2494 31.0897 22.9846C28.1102 21.4696 25.4688 19.5047 23.2857 16.9759C22.0872 15.5851 21.6696 15.7696 21.3047 13.8139Z" fill="#BDC1C6"/>
<path d="M78.0736 66.2078C78.2162 66.2282 78.4065 66.2282 78.5899 66.2758C82.5439 67.2473 85.968 69.0612 88.3934 72.4785C88.7195 72.9405 88.9776 73.4568 89.2358 73.9732C89.3445 74.1974 89.297 74.4487 89.0863 74.6254C88.8214 74.8428 88.5428 74.7952 88.3119 74.5982C88.1352 74.4487 87.9722 74.2585 87.8499 74.0615C85.8253 70.8072 82.7885 68.9389 79.3033 67.6889C78.8141 67.5122 78.3182 67.3356 77.8358 67.1454C77.5708 67.0435 77.2651 66.894 77.3263 66.5543C77.3942 66.2078 77.7339 66.2078 78.0736 66.2146V66.2078Z" fill="#202124"/>
<path fill-rule="evenodd" clip-rule="evenodd" d="M73.3259 68.9661C73.3259 68.9661 73.3123 68.9661 73.3055 68.9661H73.2852L73.2648 68.9593C73.2444 68.9593 73.2172 68.9457 73.1765 68.9321C73.061 68.8982 72.8775 68.8438 72.7349 68.7759C68.9983 67.0299 65.9139 64.5365 64.1543 60.6165C63.9165 60.0866 63.7602 59.5295 63.6108 58.9996C63.6108 58.9792 63.5972 58.9588 63.5972 58.9452C63.4885 58.5444 63.6651 58.1503 64.032 57.9465C64.2494 57.831 64.4804 57.7903 64.7046 57.8514C64.922 57.9126 65.0918 58.0484 65.2209 58.2115C65.384 58.4221 65.5266 58.6667 65.6217 58.918C66.9397 62.4101 69.4874 64.7743 72.6262 66.6562C73.0746 66.928 73.5297 67.1997 73.9713 67.4783C74.0936 67.553 74.2703 67.6753 74.3926 67.8383C74.5352 68.0286 74.6032 68.2799 74.4877 68.5721C74.4333 68.7079 74.3518 68.8166 74.2363 68.8982C74.1208 68.9797 73.9985 69.0137 73.8898 69.0205C73.6928 69.0408 73.4754 69.0001 73.3259 68.9661Z" fill="#202124"/>
<path fill-rule="evenodd" clip-rule="evenodd" d="M48.6434 58.1231C48.6434 58.1231 48.6366 58.1164 48.6298 58.1096L48.6162 58.096V58.0824C48.6162 58.0824 48.5755 58.0416 48.5551 58.0077C48.4871 57.9057 48.3852 57.7495 48.3173 57.6C46.6256 53.843 45.9123 49.9366 47.142 45.8195C47.305 45.2625 47.5564 44.7393 47.7874 44.2434C47.7942 44.223 47.801 44.2094 47.8146 44.189C47.9912 43.8154 48.3852 43.6319 48.7929 43.7203C49.0307 43.7746 49.2345 43.8969 49.3635 44.0871C49.4858 44.2706 49.5266 44.488 49.5198 44.6986C49.5062 44.9703 49.4519 45.2421 49.3635 45.4934C48.0863 48.9991 48.4668 52.4571 49.6217 55.9287C49.7848 56.4247 49.9478 56.9274 50.1041 57.4302C50.1448 57.5661 50.1992 57.7699 50.1856 57.9737C50.172 58.2115 50.0565 58.4492 49.778 58.5919C49.6489 58.6599 49.513 58.687 49.3703 58.6734C49.2345 58.6599 49.119 58.6055 49.0239 58.5444C48.8608 58.4289 48.7249 58.259 48.6298 58.1367L48.6434 58.1231Z" fill="#202124"/>
<path fill-rule="evenodd" clip-rule="evenodd" d="M70.1458 36.0229C70.1458 36.0229 70.1322 35.9957 70.1186 35.9821C70.0371 35.8395 69.908 35.6289 69.7314 35.4794C69.6227 35.3911 69.4868 35.3164 69.3169 35.3028C69.1471 35.2824 68.9772 35.3232 68.8142 35.4115C68.6715 35.4862 68.556 35.5813 68.4813 35.7104C68.4066 35.8395 68.3794 35.9754 68.3726 36.0976C68.3726 36.3286 68.4609 36.5596 68.5288 36.7227C68.5492 36.7634 68.5628 36.8042 68.5832 36.845C68.6376 36.9808 68.6919 37.1031 68.7395 37.2322C69.6702 39.7935 69.7246 42.348 68.8074 44.916C68.7802 44.984 68.7598 45.0519 68.7327 45.1266C68.5968 45.5003 68.4609 45.8875 68.3386 46.2748C68.325 46.3223 68.3047 46.3767 68.2843 46.431C68.2639 46.4854 68.2435 46.5533 68.2231 46.6145C68.1824 46.7368 68.1484 46.8862 68.1416 47.0425C68.1416 47.2055 68.1688 47.389 68.2911 47.552C68.4066 47.7151 68.5832 47.8238 68.7938 47.8985C68.9908 47.9664 69.1811 47.98 69.3577 47.9325C69.5411 47.8849 69.6702 47.7762 69.7721 47.6607C69.9216 47.4841 70.0235 47.2395 70.0846 47.0764C70.0982 47.0493 70.105 47.0221 70.1118 47.0017C70.8591 45.1946 71.5113 43.2991 71.3687 41.1522C71.3687 41.0775 71.3687 41.0028 71.3619 40.928C71.3415 40.1739 71.3143 39.3315 71.1445 38.4959C70.961 37.5991 70.6078 36.7906 70.1458 36.0297V36.0229Z" fill="#202124"/>
<path d="M67.8633 52.2601C67.8089 52.5047 67.7546 53.0074 67.5779 53.4558C67.4624 53.7411 67.1431 53.9042 66.8034 53.8023C66.4977 53.7072 66.4502 53.4286 66.4434 53.1501C66.4434 52.6473 66.4977 52.1582 66.7015 51.6962C66.851 51.3565 67.1227 51.2206 67.4421 51.2818C67.8089 51.3497 67.8904 51.669 67.8633 52.2601Z" fill="#202124"/>
<path d="M90.3441 78.1853C90.3577 79.0481 90.1199 79.4965 89.6919 79.4082C89.0125 79.2723 89.2503 78.7016 89.2231 78.2804C89.1891 77.832 89.2706 77.3972 89.8481 77.4244C90.3577 77.4515 90.3305 77.8863 90.3441 78.1853Z" fill="#202124"/>
<path fill-rule="evenodd" clip-rule="evenodd" d="M44.5939 18.3799C44.5939 18.3799 44.5682 18.3638 44.5486 18.355C44.4064 18.2729 44.1939 18.1428 43.9734 18.094C43.8395 18.0672 43.6827 18.0655 43.5192 18.1314C43.3625 18.198 43.235 18.3152 43.1251 18.4615C43.0375 18.5894 42.9824 18.7342 42.9746 18.8836C42.9668 19.033 43.0083 19.1668 43.066 19.2748C43.1753 19.4835 43.3642 19.6453 43.4969 19.7539C43.5349 19.7849 43.5667 19.8085 43.6046 19.8395C43.7184 19.9326 43.8193 20.0175 43.9195 20.1093C45.9467 21.9255 47.2027 24.1577 47.6012 26.8521C47.6149 26.9217 47.6211 26.9974 47.6341 27.0738C47.691 27.4684 47.7534 27.8773 47.8307 28.2739C47.8396 28.3226 47.8478 28.378 47.856 28.4334C47.8636 28.4956 47.8779 28.5584 47.8855 28.6206C47.9074 28.7456 47.9469 28.8997 48.0155 29.0361C48.0901 29.1799 48.2054 29.3277 48.3881 29.4139C48.5708 29.5 48.7743 29.5131 48.9966 29.4734C49.198 29.4385 49.3756 29.3672 49.5112 29.2371C49.6468 29.107 49.7101 28.9494 49.7449 28.8026C49.7944 28.5753 49.7655 28.3131 49.7415 28.1401C49.7441 28.1131 49.7332 28.0847 49.7352 28.0644C49.5438 26.1138 49.2185 24.1365 48.079 22.3184C48.0444 22.2536 48.003 22.1881 47.9684 22.1233C47.5891 21.465 47.1759 20.7351 46.6323 20.0812C46.0528 19.376 45.3486 18.8292 44.5871 18.3793L44.5939 18.3799Z" fill="#202124"/>
<path d="M15.5576 21.8094C14.8316 22.8748 14.1084 23.9402 13.3823 25.0057C12.7886 25.6602 12.5015 26.4706 12.2314 27.2895L12.2398 27.2697C12.0203 27.4142 12.0597 27.6721 11.9697 27.8732L11.9809 27.8477C10.83 29.9984 10.8328 32.4183 10.3769 34.7333C10.2925 35.1584 10.4895 35.8101 9.6565 35.4842C8.79258 35.0252 8.20444 34.3848 8.23539 33.3279C8.05529 32.6535 8.18193 31.9791 8.22695 31.3047C8.92203 28.4541 9.83379 25.6942 11.4153 23.195C11.7192 22.7161 11.9866 22.2118 12.5747 22.0276C13.6666 21.1378 14.3222 21.0897 15.5576 21.8094Z" fill="#202124"/>
<path d="M10.6992 38.4191C11.2521 38.5502 11.805 38.6842 12.3579 38.8154C16.1113 39.702 20.6029 37.8489 22.6378 34.5788C23.1451 33.7606 23.4415 32.8654 23.678 31.9416C23.9203 30.998 24.2395 30.7385 24.9947 30.7528C25.9609 30.7727 26.5936 31.2232 26.7731 32.0728C26.9099 32.72 26.9641 33.3871 27.098 34.0343C28.3007 39.7876 33.9779 42.8381 39.4612 40.7284C44.9104 38.6329 46.7771 32.891 44.5769 28.3637C44.4117 28.0244 44.2036 27.6965 44.1979 27.3002C45.697 27.3772 47.1904 27.5426 48.6524 27.4684C48.8947 27.916 48.5783 28.1669 48.47 28.452C48.3332 28.8113 48.2392 29.1648 48.262 29.5525C48.2933 30.1113 48.661 30.3479 49.1255 30.5504C49.6471 30.7756 49.9264 30.4819 50.1943 30.1398C50.5106 29.7293 50.7643 29.2646 51.1205 28.8939C52.1123 27.8676 53.3178 27.4 54.72 27.8619C56.1479 28.3323 56.7378 29.4755 56.8803 30.8953C56.9715 31.8076 56.8319 32.68 56.3787 33.4954C56.0111 34.1569 55.6691 34.8297 55.3157 35.4968C54.9908 35.9273 54.5034 35.9159 54.0389 35.9701C50.3909 36.3977 48.5755 38.4419 48.6296 42.057C48.6353 42.4675 48.7778 42.9151 48.3731 43.2401C45.7283 44.8395 44.0953 47.2372 43.0978 50.091C42.0718 53.0247 41.536 56.0496 41.6586 59.1686C41.7042 60.3061 41.67 61.4437 41.8267 62.5812C41.935 63.3624 41.7526 63.562 41.0031 63.5192C35.0808 63.1771 29.1585 62.8065 23.3873 61.2783C22.1704 60.9562 22.1675 60.9162 22.481 59.7302C22.7233 58.8151 22.9313 57.8913 23.1422 56.9705C23.3788 55.9327 23.5156 55.7959 24.6043 55.9612C25.6958 56.1294 26.7788 56.0781 27.8647 56.0182C28.1468 56.004 28.4318 55.9612 28.7054 55.8814C29.2782 55.7189 29.5604 55.2998 29.5632 54.7182C29.5661 54.1309 29.2839 53.7061 28.7083 53.555C27.7364 53.2984 26.7332 53.3041 25.7386 53.287C23.9659 53.2585 22.253 52.9306 20.5915 52.3234C18.4512 51.5422 16.5759 50.3391 15.168 48.5458C12.9764 45.7547 11.2692 42.7098 10.742 39.1261C10.7049 38.8952 10.7106 38.6557 10.6992 38.4191Z" fill="#F1F3F4"/>
<path d="M31.5292 22.7315C31.412 23 31.2262 23.2028 30.9861 23.3685C29.1684 24.6481 28.0652 26.4275 27.3536 28.4954C27.0335 29.4323 27.0049 29.2666 25.9589 29.2952C24.3298 29.3352 23.7467 28.4497 23.3323 27.0873C22.5749 24.5881 20.9516 22.7087 18.8166 21.2434C18.2765 20.8721 17.6277 20.635 17.2676 20.0352C18.6251 18.3501 20.4028 17.1447 22.0834 15.8309C22.5721 15.4481 22.9236 15.5795 23.2837 16.0222C25.5759 18.8185 28.4596 20.8893 31.5292 22.7315Z" fill="#F1F3F4"/>
<path d="M40.6569 26.1589C38.5315 25.8196 36.5804 24.9861 34.667 24.0385C34.9225 23.6817 35.3087 23.6437 35.6948 23.6086C37.6256 23.439 39.8294 24.5737 40.6569 26.1589Z" fill="#202124"/>
<path d="M19.5417 24.4226C19.3934 24.4112 19.2992 24.3342 19.265 24.1887C19.4276 24.183 19.5217 24.26 19.5417 24.4226Z" fill="#DADCE0"/>
<path d="M22.2932 39.8926C21.9468 41.3904 24.2999 40.3739 24.986 40.4514C25.626 40.5232 25.8422 40.9022 25.5712 41.4191C25.0667 42.3839 22.9334 43.0042 21.6851 42.5533C20.4714 42.114 19.8776 40.8735 20.2091 39.5067C20.4282 38.5993 20.9903 37.9101 21.835 37.6402C23.0574 37.2468 23.4321 36.3825 23.5417 35.2626C23.5648 35.0243 23.5532 34.7831 23.5936 34.5476C23.6945 33.9618 24.0347 33.5512 24.6458 33.577C25.2253 33.6 25.6231 33.9561 25.701 34.5648C25.8768 35.9001 25.5622 37.2133 25.3949 38.5428C25.2912 39.3583 24.8049 38.8307 24.0755 38.8566C23.6172 38.8709 22.6507 39.2839 22.2932 39.8926Z" fill="#202124"/>
<path d="M23.9828 47.5496C22.2587 47.5727 21.8291 47.2583 21.8291 46.2805C21.8291 45.5478 22.0874 45.2219 22.7894 45.1382C23.1123 45.1007 23.4437 45.1498 23.7694 45.1209C24.7269 45.0402 25.5917 44.7344 26.2656 43.9873C26.4229 43.8114 26.5801 43.6297 26.757 43.4768C27.386 42.9259 27.9813 42.8307 28.3828 43.2374C28.8966 43.7595 28.6327 44.2931 28.3463 44.8065C27.2905 46.6987 25.631 47.4861 23.9828 47.5496Z" fill="#202124"/>
<path d="M52.9205 34.4305C52.3802 34.4135 51.9823 34.0171 52.0803 33.4905C52.2347 32.6524 52.7572 32.0239 53.5618 31.6785C54.307 31.3585 54.9601 31.8427 54.9156 32.6213C54.8711 33.4084 53.7162 34.4532 52.9205 34.4305Z" fill="#202124"/>
<path fill-rule="evenodd" clip-rule="evenodd" d="M32.1062 22.4522C31.8763 22.4904 31.6463 22.5286 31.4166 22.5699C31.137 22.6051 30.9142 22.7509 30.6868 22.8998C30.675 22.9074 30.6632 22.9151 30.6515 22.9228C28.927 24.0785 27.8592 25.7295 27.1825 27.6338C26.8428 28.5902 26.3231 28.7838 25.3552 28.6358C24.2039 28.4577 23.9015 27.6521 23.5826 26.8026C23.5701 26.7695 23.5577 26.7363 23.5451 26.703C22.3574 23.5576 20.2675 21.2491 17.1668 19.8799C16.7952 19.8631 15.0844 19.5425 14.6201 19.3135C14.1926 19.5146 13.7344 19.5792 13.2768 19.6437C13.0803 19.6714 12.8839 19.6991 12.69 19.7376C10.9798 20.0735 9.45235 20.768 8.1647 21.9579C4.74429 25.1203 3.98198 29.9679 6.44022 34.2633C6.57336 34.4954 6.68902 34.6999 6.79243 34.8829C7.36765 35.9003 7.56407 36.2477 8.28176 36.9305C8.59426 37.1195 8.89019 37.2793 9.17446 37.4328C9.6551 37.6923 10.1024 37.9339 10.5401 38.2683C12.4045 39.6403 14.5173 39.5151 16.5387 38.9714C20.0876 38.0178 22.7657 35.9769 23.8278 32.2594C24.0048 31.6502 24.2846 31.061 25.0812 31.1464C25.7921 31.2232 26.1433 31.7214 26.2889 32.3732C26.3424 32.6155 26.3895 32.8593 26.4366 33.1034C26.5152 33.5104 26.594 33.9181 26.7029 34.3202C27.7849 38.348 30.8884 41.1689 34.6172 41.5077C39.2853 41.9318 43.2624 39.8368 44.9469 35.7634C46.1575 32.8372 46.2146 29.8569 44.099 27.1755C43.8542 26.9106 43.6119 26.643 43.3695 26.3754C42.8202 25.7688 42.2706 25.1619 41.6921 24.5852C39.408 22.3023 36.6786 21.4797 33.5008 22.1941C33.0396 22.2972 32.5733 22.3746 32.1062 22.4522ZM8.68418 31.2636C9.48355 27.9509 10.7762 24.8484 12.7037 22.0272C12.2965 21.7523 11.919 21.9198 11.5369 22.0893C11.528 22.0932 11.5192 22.0971 11.5103 22.1011C10.4984 22.5443 9.63946 23.1892 9.0215 24.104C7.28668 26.6667 6.78211 29.4226 7.82243 32.3944C8.12291 32.8006 8.36953 32.8944 8.49709 32.2807C8.52142 32.1646 8.51133 32.0422 8.50124 31.9198C8.48195 31.6858 8.46269 31.452 8.68418 31.2636Z" fill="#202124"/>
<path d="M40.5728 26.2241C41.883 27.3699 42.9462 28.6834 43.3542 30.4063C43.9978 33.1243 42.6243 36.7407 39.843 38.1395C38.188 38.9726 36.4727 39.4872 34.6022 39.2C31.1255 38.6627 28.8297 36.0072 28.6861 32.4022C28.5941 30.0339 29.367 27.9357 30.8066 26.0791C31.7605 24.8481 33.0822 24.2482 34.6424 24.1629C36.7485 24.4955 38.6765 25.3144 40.5728 26.2241Z" fill="#F1F3F4"/>
<path d="M19.8641 24.8177C22.7845 27.6682 22.0837 32.0702 20.1731 34.33C17.8477 37.083 13.686 37.8229 10.4797 35.999C9.74175 34.8605 10.4196 33.6962 10.4969 32.5663C10.5941 31.1669 10.9802 29.7789 11.4951 28.4511C11.5294 28.3135 11.5809 28.1787 11.641 28.0468C11.7239 27.8575 11.8183 27.6711 11.9127 27.4876C11.967 27.3643 12.0299 27.2467 12.0929 27.1262C12.4733 26.4265 12.7993 25.6981 13.1483 24.9812C13.9635 23.9459 14.2781 22.5178 15.5909 21.8812C16.675 22.0045 17.5159 22.5723 18.2481 23.3408C18.5268 23.6941 19.5152 24.4277 19.581 24.5367L19.6039 24.5568C19.7183 24.6256 19.8012 24.7116 19.8641 24.8177Z" fill="#F1F3F4"/>
<path d="M34.0976 30.7615C34.089 31.9222 32.9798 33.0216 31.8362 33.0049C30.9843 32.9938 30.3925 32.4288 30.3897 31.6216C30.384 30.4888 31.5018 29.317 32.6081 29.2975C33.5401 29.2808 34.1061 29.8375 34.0976 30.7615Z" fill="#202124"/>
<path d="M37.232 29.2069C37.1294 30.2253 36.8469 31.1448 36.4675 32.0352C36.342 32.332 36.1109 32.495 35.7914 32.4135C35.5119 32.3437 35.4691 32.0905 35.4605 31.8432C35.4263 30.5832 35.3436 29.3378 34.9841 28.1157C34.8672 27.7258 35.0611 27.3533 35.4348 27.138C35.8856 26.8761 36.2593 27.0682 36.5902 27.3795C37.1236 27.8887 37.1294 28.59 37.232 29.2069Z" fill="#202124"/>
<path d="M16.992 23.9654C17.9096 23.6825 18.5146 24.1096 19.0009 24.8083L19.0096 24.8337C19.2498 25.0798 19.053 25.4447 19.2585 25.7021C19.2411 26.8618 19.354 28.0385 18.7346 29.1105C18.4046 29.6847 18.0717 29.7299 17.6462 29.2689C16.7634 28.31 16.3755 25.1675 16.992 23.9654Z" fill="#202124"/>
<path d="M16.1259 27.9481C16.0833 29.3193 14.9308 30.491 13.6788 30.436C12.7676 30.3955 12.2651 29.8198 12.461 28.9143C12.6994 27.8179 13.3637 26.9963 14.3829 26.5652C15.3452 26.1544 16.16 26.8372 16.1259 27.9481Z" fill="#202124"/>
<path d="M48.5126 42.6492C48.1499 38.6341 50.8904 35.4964 54.9852 35.2167C55.5816 35.1772 57.758 35.6659 58.2499 35.9225L58.3573 35.98C61.8139 37.8765 62.68 42.5287 60.1191 45.5692C57.4752 48.7075 53.0087 48.7435 50.0381 45.6809C49.5096 45.1344 48.5697 43.26 48.5126 42.6492Z" fill="#202124"/>
<path d="M54.7942 37.9695C55.8963 37.9285 57.3573 38.9311 57.677 39.875C57.8088 40.2649 57.8312 40.6665 57.4779 40.9333C57.1414 41.1854 56.732 41.159 56.4459 40.8688C55.7757 40.1946 55.1391 39.491 54.2951 39.0366C54.0735 38.9194 54.009 38.6497 54.0931 38.4005C54.2221 38.0018 54.5895 38.0282 54.7942 37.9695Z" fill="#F1F3F4"/>
<path d="M82.7048 95C78.7897 95 75.4511 93.1873 73.6075 90.0018C70.3494 84.3706 67.0577 79.7656 63.5582 75.9337C57.5314 69.3427 49.4723 66.4438 44.0153 68.0432C43.4119 68.2165 42.8555 68.4564 42.346 68.743L41.3471 67.0036C41.9907 66.6371 42.6946 66.3438 43.4455 66.1239C49.7137 64.2846 58.4431 67.3701 65.0465 74.5875C68.6466 78.5327 72.0187 83.2443 75.3505 89.0022C77.717 93.094 82.0612 93.1207 83.8177 92.9474C87.6724 92.5609 91.0513 90.2351 92.0233 87.3028C93.2636 83.5775 93.5183 78.1862 93.2368 76.6067C92.5999 73.0214 90.7362 69.8759 87.525 67.0036C85.4065 65.111 82.0478 63.8647 77.5494 63.3116C73.3192 62.7918 70.403 59.513 70.7583 55.6944C70.9125 54.055 71.9449 52.3356 73.1382 50.343C74.888 47.4308 76.8723 44.132 76.1751 40.6599C75.6254 37.9409 73.1248 36.7413 70.4767 35.4751C67.4264 34.0157 63.9605 32.363 63.8666 28.0445C63.7527 23.1663 63.2365 17.3085 60.1794 15.3092C58.6241 14.2896 56.4118 14.3496 53.5961 15.4758C53.1537 15.6557 52.6442 15.4958 52.3827 15.1026C51.5045 13.7964 49.8821 12.9101 48.0318 12.7235C46.1614 12.5369 44.3581 13.11 43.205 14.2496C42.8564 14.5961 42.3066 14.6428 41.9044 14.3562C36.139 10.2311 27.397 12.317 21.7254 16.0023L20.626 14.1536C29.1534 8.60895 37.5468 9.28475 42.4139 12.2903C43.9625 11.0841 46.0408 10.5176 48.233 10.7375C50.3715 10.9508 52.309 11.9105 53.5693 13.3499C56.7068 12.237 59.3012 12.337 61.2923 13.6365C65.1069 16.1356 65.7504 22.3 65.8845 27.9979C65.9516 31.0901 68.4589 32.283 71.355 33.6691C74.1975 35.0286 77.4154 36.5614 78.1595 40.2601C79.0109 44.4852 76.7181 48.2971 74.8746 51.3627C73.8488 53.0687 72.8768 54.6814 72.7695 55.8677C72.4812 58.9665 75.1494 60.9858 77.8042 61.3123C82.7249 61.9255 86.4523 63.3316 88.8792 65.5041C92.439 68.6896 94.5105 72.2017 95.2278 76.2469C95.5898 78.2995 95.2077 84.104 93.9407 87.9159C92.7071 91.6279 88.7183 94.4469 84.0255 94.92C83.5763 94.9667 83.1406 94.9867 82.7048 94.9867V95Z" fill="#202124"/>
<path d="M41.4351 66.7921C41.4283 66.1671 41.4147 65.5081 41.3943 64.8151C41.2245 57.5661 40.9799 46.6077 48.4395 42.7828L48.6297 42.6809L48.8471 42.6673C50.0836 42.6061 50.7426 43.3874 51.1842 43.9037C51.2657 44.0057 51.354 44.1008 51.4424 44.1959C52.5973 45.3984 53.8949 46.0302 55.1926 46.0302C55.2061 46.0302 55.2129 46.0302 55.2265 46.0302C56.4766 46.0166 57.6927 45.4188 58.7457 44.291C59.5881 43.3874 59.9686 41.7229 59.6833 40.2555C59.5406 39.5421 59.1058 38.2581 57.781 37.6466C57.6995 37.6059 57.6111 37.5719 57.5296 37.5379C56.891 37.2662 55.8244 36.8042 55.5526 35.5134L55.5322 35.3164C55.5254 34.3856 55.9467 33.6655 56.2796 33.1967C57.4413 31.3012 56.9386 29.5688 55.8787 28.8894C54.7917 28.1964 53.4533 28.7739 52.3867 30.3976C51.7345 31.4439 50.3757 31.804 49.1732 31.2401C48.0387 30.7102 47.5019 29.5484 47.8688 28.4138C47.8824 28.3799 47.8892 28.3459 47.896 28.3119C47.7737 28.2984 47.631 28.2848 47.5495 28.278C46.1704 28.2984 43.6906 28.278 42.359 26.1379C39.0708 22.6323 36.9376 22.6935 34.4714 22.7614C31.2987 22.8497 27.2272 22.8074 21.5 16L23.5334 14.833C28.6219 20.8863 31.4278 20.8116 34.4035 20.73C37.1346 20.6553 39.954 20.5738 43.9148 24.8335L44.0507 25.0101C44.6621 26.0564 45.8103 26.2466 47.5767 26.2466H47.6582C48.3036 26.301 49.1936 26.3689 49.6828 27.0958C50.1787 27.8228 49.9002 28.7399 49.8051 29.0389C49.7847 29.1068 49.7303 29.2631 50.0292 29.3989C50.0292 29.3989 50.4776 29.6028 50.6679 29.3038C52.6381 26.301 55.2469 26.0768 56.9725 27.1774C58.8612 28.3867 59.8667 31.2944 57.9984 34.3041L57.9576 34.3652C57.7266 34.6913 57.6044 34.9495 57.5772 35.1873C57.6451 35.3435 57.8218 35.4454 58.3381 35.6696C58.44 35.7172 58.5419 35.758 58.6438 35.8055C60.2336 36.5392 61.3206 37.9863 61.6874 39.875C62.1019 41.9811 61.5244 44.3182 60.2471 45.6973C58.8069 47.2463 57.0812 48.0684 55.2537 48.0887C53.3854 48.0887 51.5443 47.2531 49.9817 45.6294C49.8662 45.5071 49.7507 45.378 49.6352 45.2421C49.3702 44.9296 49.2344 44.7937 49.1189 44.7462C43.052 48.1227 43.2762 57.736 43.4392 64.7879C43.4528 65.4809 43.4732 66.1535 43.48 66.7853L41.4419 66.8125L41.4351 66.7921Z" fill="#202124"/>
</svg>
